<svg width="30" height="30" viewBox="0 0 30 30" fill="none" xmlns="http://www.w3.org/2000/svg">
<rect width="30" height="30" fill="#F0F7FF"/>
<path d="M27.2086 5H24.5002V6.66667H27.0002V25H3.66688V6.66667H6.16688V5H3.45855C3.26375 5.00326 3.07149 5.04486 2.89277 5.12242C2.71405 5.19999 2.55236 5.31201 2.41693 5.45208C2.28151 5.59214 2.175 5.75752 2.1035 5.93875C2.032 6.11999 1.9969 6.31353 2.00021 6.50833V25.1583C1.9969 25.3531 2.032 25.5467 2.1035 25.7279C2.175 25.9092 2.28151 26.0745 2.41693 26.2146C2.55236 26.3547 2.71405 26.4667 2.89277 26.5442C3.07149 26.6218 3.26375 26.6634 3.45855 26.6667H27.2086C27.4034 26.6634 27.5956 26.6218 27.7743 26.5442C27.9531 26.4667 28.1147 26.3547 28.2502 26.2146C28.3856 26.0745 28.4921 25.9092 28.5636 25.7279C28.6351 25.5467 28.6702 25.3531 28.6669 25.1583V6.50833C28.6702 6.31353 28.6351 6.11999 28.5636 5.93875C28.4921 5.75752 28.3856 5.59214 28.2502 5.45208C28.1147 5.31201 27.9531 5.19999 27.7743 5.12242C27.5956 5.04486 27.4034 5.00326 27.2086 5Z" fill="#545454"/>
<path d="M7 11.667H8.66667V13.3337H7V11.667Z" fill="#545454"/>
<path d="M12 11.667H13.6667V13.3337H12V11.667Z" fill="#545454"/>
<path d="M17 11.667H18.6667V13.3337H17V11.667Z" fill="#545454"/>
<path d="M22 11.667H23.6667V13.3337H22V11.667Z" fill="#545454"/>
<path d="M7 15.833H8.66667V17.4997H7V15.833Z" fill="#545454"/>
<path d="M12 15.833H13.6667V17.4997H12V15.833Z" fill="#545454"/>
<path d="M17 15.833H18.6667V17.4997H17V15.833Z" fill="#545454"/>
<path d="M22 15.833H23.6667V17.4997H22V15.833Z" fill="#545454"/>
<path d="M7 20H8.66667V21.6667H7V20Z" fill="#545454"/>
<path d="M12 20H13.6667V21.6667H12V20Z" fill="#545454"/>
<path d="M17 20H18.6667V21.6667H17V20Z" fill="#545454"/>
<path d="M22 20H23.6667V21.6667H22V20Z" fill="#545454"/>
<path d="M8.66732 8.33366C8.88833 8.33366 9.10029 8.24586 9.25657 8.08958C9.41285 7.9333 9.50065 7.72134 9.50065 7.50033V2.50033C9.50065 2.27931 9.41285 2.06735 9.25657 1.91107C9.10029 1.75479 8.88833 1.66699 8.66732 1.66699C8.4463 1.66699 8.23434 1.75479 8.07806 1.91107C7.92178 2.06735 7.83398 2.27931 7.83398 2.50033V7.50033C7.83398 7.72134 7.92178 7.9333 8.07806 8.08958C8.23434 8.24586 8.4463 8.33366 8.66732 8.33366Z" fill="#545454"/>
<path d="M21.9993 8.33366C22.2204 8.33366 22.4323 8.24586 22.5886 8.08958C22.7449 7.9333 22.8327 7.72134 22.8327 7.50033V2.50033C22.8327 2.27931 22.7449 2.06735 22.5886 1.91107C22.4323 1.75479 22.2204 1.66699 21.9993 1.66699C21.7783 1.66699 21.5664 1.75479 21.4101 1.91107C21.2538 2.06735 21.166 2.27931 21.166 2.50033V7.50033C21.166 7.72134 21.2538 7.9333 21.4101 8.08958C21.5664 8.24586 21.7783 8.33366 21.9993 8.33366Z" fill="#545454"/>
<path d="M11.166 5H19.4993V6.66667H11.166V5Z" fill="#545454"/>
</svg>
