<svg width="28" height="28" viewBox="0 0 28 28" fill="none" xmlns="http://www.w3.org/2000/svg">
<path fill-rule="evenodd" clip-rule="evenodd" d="M4.375 3.0625C4.375 2.82088 4.57088 2.625 4.8125 2.625H19.6875C19.9292 2.625 20.125 2.82088 20.125 3.0625V16.6013C20.125 17.3262 20.7126 17.9139 21.4375 17.9139C22.1624 17.9139 22.75 17.3262 22.75 16.6013V3.0625C22.75 1.37113 21.3789 0 19.6875 0H4.8125C3.12113 0 1.75 1.37113 1.75 3.0625V23.1875C1.75 24.8789 3.12113 26.25 4.8125 26.25H10.3615C11.0863 26.25 11.674 25.6624 11.674 24.9375C11.674 24.2126 11.0863 23.625 10.3615 23.625H4.8125C4.57088 23.625 4.375 23.4292 4.375 23.1875V3.0625ZM8.3125 7C7.58763 7 7 7.58763 7 8.3125C7 9.03737 7.58763 9.625 8.3125 9.625H16.1875C16.9124 9.625 17.5 9.03737 17.5 8.3125C17.5 7.58763 16.9124 7 16.1875 7H8.3125ZM7 13.5625C7 12.8376 7.58763 12.25 8.3125 12.25H11.8125C12.5374 12.25 13.125 12.8376 13.125 13.5625C13.125 14.2874 12.5374 14.875 11.8125 14.875H8.3125C7.58763 14.875 7 14.2874 7 13.5625ZM27.6045 19.7516C28.123 19.2451 28.133 18.414 27.6266 17.8955C27.1201 17.3769 26.289 17.367 25.7705 17.8734L18.7255 24.7532L16.2422 22.2611C15.7306 21.7476 14.8995 21.7462 14.3861 22.2577C13.8726 22.7694 13.8711 23.6005 14.3828 24.1139L17.7832 27.5264C18.2912 28.0362 19.1151 28.0418 19.6299 27.539L27.6045 19.7516Z" fill="white"/>
</svg>
