<svg width="26" height="26" viewBox="0 0 26 26" fill="none" xmlns="http://www.w3.org/2000/svg">
<path d="M21.6786 9.51863V4.32134H16.4814L12.8133 0.65332L9.14531 4.32134H3.94802V9.51863L0.279999 13.1867L3.94802 16.8547V22.052H9.14531L12.8133 25.72L16.4814 22.052H21.6786V16.8547L25.3467 13.1867L21.6786 9.51863ZM12.8133 19.8356C11.8271 19.8356 10.8851 19.614 10.0429 19.2261C12.3257 18.1734 13.9215 15.8684 13.9215 13.1867C13.9215 10.5049 12.3257 8.19992 10.0429 7.14716C10.8851 6.7593 11.8271 6.53767 12.8133 6.53767C16.4814 6.53767 19.4623 9.51863 19.4623 13.1867C19.4623 16.8547 16.4814 19.8356 12.8133 19.8356Z" fill="#5D5FEF"/>
</svg>
