<svg width="11" height="8" viewBox="0 0 11 8" fill="none" xmlns="http://www.w3.org/2000/svg">
<path d="M1.74329 0.831035C1.37384 0.420525 0.741545 0.387247 0.331035 0.756706C-0.0794748 1.12616 -0.112753 1.75845 0.256706 2.16896L1.74329 0.831035ZM5.5 6.5L4.75671 7.16896L5.5 7.99485L6.24329 7.16896L5.5 6.5ZM10.7433 2.16896C11.1128 1.75845 11.0795 1.12616 10.669 0.756706C10.2585 0.387247 9.62617 0.420525 9.25671 0.831035L10.7433 2.16896ZM0.256706 2.16896L4.75671 7.16896L6.24329 5.83104L1.74329 0.831035L0.256706 2.16896ZM6.24329 7.16896L10.7433 2.16896L9.25671 0.831035L4.75671 5.83104L6.24329 7.16896Z" fill="#666666"/>
</svg>
