<svg width="282" height="28" viewBox="0 0 282 28" fill="none" xmlns="http://www.w3.org/2000/svg">
<path d="M37.7431 6.91062V4.4668H27.3876V23.3677H37.7431V20.9108H29.874V15.1337H37.7431V12.6899H29.874V6.91062H37.7431Z" fill="#3CB4FF"/>
<path d="M50.1663 4.4668V11.5279C49.1563 10.7474 47.9462 10.2643 46.6738 10.1337C45.4013 10.0032 44.1175 10.2303 42.9685 10.7893C41.8194 11.3483 40.8512 12.2167 40.174 13.2957C39.4968 14.3748 39.1378 15.6211 39.1378 16.893C39.1378 18.1649 39.4968 19.4113 40.174 20.4903C40.8512 21.5694 41.8194 22.4378 42.9685 22.9968C44.1175 23.5558 45.4013 23.7829 46.6738 23.6523C47.9462 23.5217 49.1563 23.0387 50.1663 22.2581V23.3699H52.6636V4.4668H50.1663ZM45.9741 21.1572C45.0884 21.1567 44.2246 20.8833 43.5017 20.3747C42.7787 19.866 42.232 19.1471 41.9369 18.3168C41.6418 17.4865 41.6128 16.5857 41.8537 15.7383C42.0947 14.8909 42.5939 14.1386 43.2826 13.5849C43.9713 13.0313 44.8157 12.7034 45.6995 12.6465C46.5833 12.5896 47.4632 12.8064 48.2179 13.2671C48.9727 13.7279 49.5653 14.4099 49.9142 15.2192C50.2631 16.0286 50.3512 16.9256 50.1663 17.7868C49.9606 18.7406 49.4323 19.5955 48.6694 20.2089C47.9065 20.8222 46.9551 21.1569 45.9741 21.1572Z" fill="#3CB4FF"/>
<path d="M110.539 10.8216C109.724 10.4459 108.81 10.3355 107.927 10.5062C107.045 10.6768 106.24 11.1198 105.625 11.7721V4.4668H103.128V23.3699H105.625V15.1337C105.624 14.504 105.867 13.8981 106.304 13.4418C106.74 12.9855 107.337 12.714 107.969 12.6837C108.602 12.6533 109.222 12.8666 109.7 13.279C110.179 13.6914 110.479 14.2714 110.539 14.8983V23.3699H113.039V14.6912C113.038 13.876 112.802 13.0781 112.359 12.3922C111.916 11.7063 111.284 11.1612 110.539 10.8216Z" fill="#3CB4FF"/>
<path d="M89.6326 10.7761V11.5195C88.622 10.7418 87.4122 10.2614 86.1408 10.133C84.8693 10.0045 83.5871 10.2331 82.4397 10.7927C81.2924 11.3524 80.3258 12.2207 79.6498 13.299C78.9738 14.3774 78.6155 15.6226 78.6155 16.8933C78.6155 18.164 78.9738 19.4092 79.6498 20.4876C80.3258 21.566 81.2924 22.4343 82.4397 22.994C83.5871 23.5536 84.8693 23.7822 86.1408 23.6537C87.4122 23.5252 88.622 23.0448 89.6326 22.2671V23.2961H92.13V10.7761H89.6326ZM85.4514 21.1575C84.6056 21.1558 83.7794 20.9049 83.0769 20.4367C82.3744 19.9684 81.8272 19.3037 81.5043 18.5265C81.1815 17.7493 81.0975 16.8944 81.2629 16.0697C81.4283 15.2451 81.8358 14.4876 82.4338 13.893C83.0318 13.2984 83.7936 12.8933 84.623 12.7288C85.4524 12.5643 86.3123 12.6479 87.094 12.9689C87.8756 13.2899 88.5442 13.834 89.0151 14.5324C89.4861 15.2309 89.7383 16.0524 89.7401 16.8933C89.739 17.2095 89.703 17.5246 89.6326 17.8329C89.4179 18.7763 88.8872 19.6191 88.1274 20.2231C87.3677 20.8272 86.4241 21.1566 85.4514 21.1575Z" fill="#3CB4FF"/>
<path d="M74.7582 4.4668V13.0474H69.2176V4.4668H66.7202V23.3656H69.2176V15.5305H74.7582V23.3656H77.2556V4.4668H74.7582Z" fill="#3CB4FF"/>
<path d="M62.3987 11.2119V18.2818C62.3388 18.9316 62.0369 19.5357 61.5521 19.9755C61.0674 20.4154 60.4348 20.6593 59.7785 20.6593C59.1223 20.6593 58.4897 20.4154 58.0049 19.9755C57.5202 19.5357 57.2183 18.9316 57.1584 18.2818V11.2119H54.6589V18.6088C54.6533 19.2639 54.7808 19.9133 55.0336 20.5183C55.2864 21.1232 55.6593 21.6712 56.1301 22.1295C57.0817 23.067 58.3387 23.5357 59.9013 23.5357C61.3908 23.5357 62.6121 23.067 63.5651 22.1295C64.0308 21.6684 64.3993 21.1194 64.6489 20.5149C64.8985 19.9103 65.0243 19.2623 65.0188 18.6088V11.2119H62.3987Z" fill="#3CB4FF"/>
<path d="M96.6358 20.7586C96.7738 20.8977 96.9384 21.0079 97.1199 21.0828C97.3014 21.1577 97.4962 21.1957 97.6927 21.1946C97.8886 21.1961 98.0827 21.1583 98.2636 21.0833C98.4444 21.0084 98.6082 20.898 98.7451 20.7586C98.8874 20.6233 98.9999 20.46 99.0754 20.2791C99.1509 20.0982 99.1878 19.9037 99.1836 19.7079C99.186 19.5155 99.1483 19.3248 99.0729 19.1477C98.9974 18.9705 98.8858 18.8109 98.7451 18.6789C98.3455 18.3376 97.9155 18.0333 97.4602 17.7698C96.7702 17.43 96.1287 17.0004 95.5527 16.4923C95.2372 16.1932 94.9872 15.8327 94.8182 15.4332C94.6492 15.0337 94.5648 14.6039 94.5704 14.1706C94.5639 13.7333 94.6479 13.2994 94.8173 12.8959C94.9867 12.4924 95.2377 12.1278 95.5549 11.8248C95.8637 11.5098 96.2341 11.2609 96.6431 11.0933C97.0522 10.9258 97.4915 10.8431 97.9338 10.8504C98.363 10.8383 98.7901 10.914 99.1887 11.0726C99.5874 11.2312 99.949 11.4694 100.251 11.7725C100.668 12.1647 100.961 12.6693 101.093 13.2244L98.6815 13.9111C98.6522 13.7715 98.5956 13.6389 98.5149 13.5209C98.4385 13.4478 98.348 13.3909 98.2489 13.3534C98.1498 13.3159 98.0441 13.2988 97.9382 13.3029C97.8231 13.3011 97.7088 13.3228 97.6025 13.3667C97.4961 13.4106 97.4 13.4757 97.3199 13.558C97.2356 13.6362 97.1686 13.7312 97.1233 13.8367C97.078 13.9421 97.0554 14.0559 97.0568 14.1706C97.0548 14.2827 97.0762 14.3941 97.1196 14.4976C97.163 14.6012 97.2275 14.6947 97.309 14.7722C97.6345 15.0382 97.9797 15.2794 98.3417 15.4938C99.1246 15.8844 99.8516 16.3771 100.504 16.9588C100.872 17.3206 101.165 17.7515 101.364 18.2266C101.564 18.7017 101.667 19.2115 101.667 19.7264C101.667 20.2413 101.564 20.7511 101.364 21.2262C101.165 21.7013 100.872 22.1322 100.504 22.4939C100.001 23.0021 99.3684 23.3645 98.6742 23.5422C97.98 23.72 97.2502 23.7063 96.5632 23.5029C95.8762 23.2994 95.2579 22.9137 94.7747 22.3872C94.2915 21.8607 93.9617 21.2133 93.8206 20.5145L96.2938 19.9956C96.3324 20.2772 96.451 20.5419 96.6358 20.7586Z" fill="#3CB4FF"/>
<path d="M159.085 4.4668V23.3699H161.593V22.2581C162.603 23.0387 163.813 23.5217 165.086 23.6523C166.358 23.7829 167.642 23.5558 168.791 22.9968C169.94 22.4378 170.908 21.5694 171.585 20.4903C172.263 19.4113 172.622 18.1649 172.622 16.893C172.622 15.6211 172.263 14.3748 171.585 13.2957C170.908 12.2167 169.94 11.3483 168.791 10.7893C167.642 10.2303 166.358 10.0032 165.086 10.1337C163.813 10.2643 162.603 10.7474 161.593 11.5279V4.4668H159.085ZM161.593 17.7868C161.408 16.9251 161.496 16.0275 161.844 15.2174C162.193 14.4074 162.786 13.7248 163.541 13.2636C164.297 12.8024 165.177 12.5852 166.061 12.6421C166.946 12.699 167.791 13.027 168.48 13.5811C169.169 14.1351 169.669 14.888 169.91 15.736C170.151 16.5839 170.122 17.4854 169.826 18.3161C169.531 19.1469 168.983 19.8662 168.26 20.375C167.536 20.8838 166.672 21.1571 165.785 21.1572C164.806 21.1501 163.858 20.8129 163.097 20.2007C162.335 19.5885 161.805 18.7375 161.593 17.7868Z" fill="#3CB4FF"/>
<path d="M157.752 15.9952C157.519 14.2461 156.611 12.6555 155.221 11.5595C153.83 10.4635 152.065 9.94778 150.299 10.1214C148.534 10.295 146.905 11.1443 145.757 12.4899C144.609 13.8355 144.032 15.572 144.148 17.3326C144.264 19.0932 145.064 20.74 146.379 21.9251C147.693 23.1103 149.42 23.741 151.193 23.6839C152.967 23.6269 154.649 22.8867 155.884 21.6196C157.118 20.3525 157.81 18.6577 157.811 16.8934C157.811 16.593 157.791 16.2929 157.752 15.9952ZM150.977 21.1575C150.128 21.158 149.299 20.9082 148.593 20.4399C147.888 19.9716 147.338 19.3058 147.013 18.5267C146.688 17.7476 146.603 16.8901 146.768 16.0628C146.933 15.2355 147.341 14.4755 147.941 13.8789C148.541 13.2823 149.305 12.876 150.137 12.7113C150.969 12.5466 151.831 12.6309 152.615 12.9536C153.399 13.2763 154.069 13.8228 154.54 14.5241C155.012 15.2254 155.263 16.0499 155.263 16.8934C155.263 18.0239 154.812 19.1082 154.008 19.9078C153.204 20.7074 152.114 21.1569 150.977 21.1575Z" fill="#3CB4FF"/>
<path d="M185.008 10.7761V11.5195C183.997 10.7418 182.787 10.2614 181.516 10.133C180.244 10.0045 178.962 10.2331 177.815 10.7927C176.667 11.3524 175.701 12.2207 175.025 13.299C174.349 14.3774 173.991 15.6226 173.991 16.8933C173.991 18.164 174.349 19.4092 175.025 20.4876C175.701 21.566 176.667 22.4343 177.815 22.994C178.962 23.5536 180.244 23.7822 181.516 23.6537C182.787 23.5252 183.997 23.0448 185.008 22.2671V23.2961H187.507V10.7761H185.008ZM180.829 21.1575C180.021 21.1583 179.229 20.9322 178.545 20.5052C177.861 20.0783 177.311 19.4678 176.961 18.7442C176.61 18.0205 176.472 17.2131 176.563 16.415C176.653 15.6168 176.969 14.8603 177.473 14.2326C177.977 13.6049 178.649 13.1315 179.412 12.867C180.175 12.6025 180.997 12.5576 181.785 12.7374C182.572 12.9173 183.292 13.3146 183.863 13.8836C184.433 14.4526 184.83 15.1702 185.008 15.9537C185.154 16.5717 185.154 17.215 185.008 17.8329C184.794 18.7763 184.264 19.6192 183.504 20.2234C182.745 20.8275 181.801 21.1569 180.829 21.1575Z" fill="#3CB4FF"/>
<path d="M142.86 4.4541H140.362V23.3681H142.86V4.4541Z" fill="#3CB4FF"/>
<path d="M135.749 19.2564C134.648 20.1616 133.302 20.7223 131.88 20.8678C130.459 21.0133 129.026 20.7371 127.762 20.0741C126.499 19.411 125.461 18.3908 124.779 17.1421C124.098 15.8933 123.804 14.4719 123.934 13.0571C124.064 11.6423 124.612 10.2974 125.51 9.19207C126.407 8.08671 127.614 7.27034 128.978 6.8459C130.341 6.42147 131.801 6.40796 133.172 6.8071C134.543 7.20623 135.765 8.00013 136.683 9.0887L138.38 7.56267C137.123 6.09731 135.447 5.04821 133.574 4.55555C131.702 4.06288 129.723 4.1501 127.901 4.80556C126.08 5.46102 124.503 6.65351 123.382 8.22369C122.26 9.79387 121.647 11.667 121.625 13.5927C121.602 15.5184 122.172 17.4051 123.256 19.0007C124.341 20.5962 125.89 21.8246 127.695 22.5218C129.501 23.219 131.477 23.3517 133.361 22.9022C135.244 22.4527 136.945 21.4424 138.236 20.0063V14.0592H135.749V19.2564Z" fill="#3CB4FF"/>
<path d="M192.011 4.4541H189.513V23.3681H192.011V4.4541Z" fill="#3CB4FF"/>
<path d="M222.672 10.7761V11.5195C221.661 10.7418 220.452 10.2614 219.18 10.133C217.909 10.0045 216.626 10.2331 215.479 10.7927C214.332 11.3524 213.365 12.2207 212.689 13.299C212.013 14.3774 211.655 15.6226 211.655 16.8933C211.655 18.164 212.013 19.4092 212.689 20.4876C213.365 21.566 214.332 22.4343 215.479 22.994C216.626 23.5536 217.909 23.7822 219.18 23.6537C220.452 23.5252 221.661 23.0448 222.672 22.2671V23.2961H225.178V10.7761H222.672ZM218.493 21.1575C217.647 21.1562 216.821 20.9057 216.118 20.4377C215.415 19.9697 214.867 19.3052 214.544 18.528C214.221 17.7508 214.137 16.8959 214.302 16.0711C214.467 15.2463 214.874 14.4886 215.472 13.8938C216.07 13.299 216.832 12.8936 217.662 12.729C218.491 12.5643 219.351 12.6477 220.133 12.9687C220.915 13.2896 221.583 13.8337 222.054 14.5322C222.525 15.2307 222.778 16.0523 222.779 16.8933C222.778 17.2095 222.742 17.5246 222.672 17.8329C222.458 18.7763 221.928 19.6192 221.168 20.2234C220.409 20.8275 219.465 21.1569 218.493 21.1575Z" fill="#3CB4FF"/>
<path d="M210.812 6.9237C209.928 5.80294 208.694 5.00619 207.304 4.65864C206.788 4.53134 206.259 4.46692 205.728 4.4668H200.904V23.2958H203.39V17.3203H205.73C206.942 17.3202 208.13 16.9809 209.158 16.3413C210.186 15.7016 211.012 14.7874 211.542 13.703C212.073 12.6187 212.285 11.4079 212.156 10.2091C212.027 9.01034 211.561 7.87184 210.812 6.9237ZM203.401 14.8634V6.9237H205.73C206.789 6.9237 207.804 7.34195 208.553 8.08644C209.302 8.83094 209.722 9.84068 209.722 10.8936C209.722 11.9464 209.302 12.9562 208.553 13.7007C207.804 14.4452 206.789 14.8634 205.73 14.8634H203.401Z" fill="#3CB4FF"/>
<path d="M238.369 11.212V6.65137H235.882V11.212H233.659V13.658H235.882V23.3679H238.369V13.658H240.59V11.212H238.369Z" fill="#3CB4FF"/>
<path d="M229.677 12.6442V11.2119H227.18V23.2959H229.677V17.0631C229.888 16.1396 230.403 15.3124 231.14 14.7123C231.877 14.1122 232.794 13.7734 233.747 13.7495V11.2141C232.27 11.2385 230.841 11.7406 229.677 12.6442Z" fill="#3CB4FF"/>
<path d="M270.007 12.6442V11.2119H267.508V23.2959H270.007V17.0631C270.219 16.1403 270.733 15.3136 271.469 14.7136C272.205 14.1136 273.121 13.7743 274.073 13.7495V11.2141C272.597 11.2395 271.17 11.7415 270.007 12.6442Z" fill="#3CB4FF"/>
<path d="M276.967 20.7582C277.105 20.8973 277.269 21.0075 277.451 21.0824C277.632 21.1573 277.827 21.1953 278.024 21.1942C278.22 21.1957 278.414 21.1578 278.595 21.0829C278.775 21.008 278.939 20.8976 279.076 20.7582C279.218 20.6229 279.331 20.4596 279.406 20.2787C279.482 20.0978 279.519 19.9033 279.515 19.7074C279.517 19.5151 279.479 19.3245 279.403 19.1474C279.328 18.9703 279.216 18.8107 279.076 18.6785C278.675 18.3379 278.244 18.0337 277.789 17.7694C277.099 17.4296 276.457 17 275.881 16.4919C275.565 16.1927 275.313 15.8316 275.144 15.4313C274.974 15.031 274.889 14.6002 274.895 14.1658C274.889 13.7286 274.973 13.2949 275.142 12.8914C275.312 12.4879 275.562 12.1232 275.879 11.8201C276.188 11.5053 276.559 11.2565 276.968 11.0889C277.377 10.9214 277.816 10.8386 278.258 10.8456C278.689 10.833 279.117 10.9087 279.517 11.0682C279.917 11.2276 280.28 11.4672 280.582 11.7721C280.999 12.1643 281.292 12.6689 281.424 13.224L279.012 13.9107C278.982 13.7712 278.924 13.6387 278.844 13.5205C278.767 13.4474 278.677 13.3904 278.578 13.353C278.479 13.3155 278.373 13.2983 278.267 13.3025C278.152 13.3007 278.038 13.3224 277.931 13.3663C277.825 13.4102 277.729 13.4753 277.649 13.5576C277.566 13.6357 277.5 13.7301 277.455 13.8348C277.411 13.9395 277.389 14.0521 277.39 14.1658C277.388 14.278 277.409 14.3893 277.453 14.4929C277.496 14.5964 277.561 14.6899 277.642 14.7675C277.968 15.0334 278.313 15.2746 278.675 15.4891C279.458 15.8797 280.185 16.3723 280.837 16.9541C281.205 17.3158 281.498 17.7468 281.698 18.2218C281.897 18.6969 282 19.2067 282 19.7216C282 20.2365 281.897 20.7463 281.698 21.2214C281.498 21.6965 281.205 22.1274 280.837 22.4892C280.334 22.9973 279.702 23.3597 279.007 23.5374C278.313 23.7152 277.583 23.7016 276.896 23.4981C276.209 23.2946 275.591 22.9089 275.108 22.3824C274.625 21.8559 274.295 21.2085 274.154 20.5097L276.627 19.9909C276.664 20.2737 276.782 20.54 276.967 20.7582Z" fill="#3CB4FF"/>
<path d="M249.296 10.8218C248.48 10.445 247.566 10.3341 246.683 10.5048C245.799 10.6755 244.993 11.1191 244.378 11.7723V11.212H241.881V23.3701H244.378V15.1339C244.36 14.4929 244.594 13.8701 245.033 13.3995C245.471 12.9288 246.077 12.6479 246.721 12.6171C247.365 12.5862 247.996 12.8079 248.478 13.2346C248.959 13.6612 249.253 14.2586 249.296 14.8985V23.3701H251.796V14.6914C251.795 13.8762 251.56 13.0783 251.116 12.3924C250.673 11.7065 250.042 11.1614 249.296 10.8218Z" fill="#3CB4FF"/>
<path d="M257.801 20.6168C258.217 20.9787 258.973 21.1596 260.071 21.1596C260.634 21.169 261.194 21.0652 261.716 20.8543C262.238 20.6434 262.712 20.3298 263.11 19.9323C263.212 19.8204 263.424 19.5762 263.745 19.1998L266.232 20.0718C265.83 20.6474 265.391 21.1958 264.916 21.7134C263.629 22.9777 261.892 23.6867 260.083 23.6867C258.273 23.6867 256.537 22.9777 255.249 21.7134C254.603 21.1001 254.092 20.3609 253.747 19.542C253.401 18.7231 253.23 17.8422 253.243 16.9543C253.23 16.0661 253.401 15.1848 253.746 14.3655C254.091 13.5462 254.603 12.8066 255.249 12.1931C256.441 11.0267 258.019 10.3299 259.689 10.2321C261.358 10.1343 263.007 10.6421 264.329 11.6612C264.528 11.8269 264.726 12.0035 264.916 12.1931C264.997 12.2716 265.225 12.5194 265.603 12.9365L264.353 14.177L257.801 20.6168ZM261.967 13.0564C261.687 12.8428 261.058 12.736 260.082 12.736C259.52 12.7274 258.963 12.8326 258.443 13.0451C257.924 13.2576 257.453 13.573 257.06 13.972C256.656 14.3566 256.336 14.8199 256.12 15.3331C255.905 15.8463 255.798 16.3982 255.806 16.9543C255.806 17.9077 255.914 18.5261 256.131 18.8096L261.967 13.0564Z" fill="#3CB4FF"/>
<path d="M11.1274 25.1294L7.66089 25.1338L9.39303 27.9634L11.1274 25.1294Z" fill="#010101"/>
<path d="M11.1822 17.8109L10.6844 16.9389L11.9408 14.8853L8.30769 8.59372L7.08642 10.5906C7.07521 10.6082 7.06276 10.625 7.04915 10.6408L6.55582 9.78184L7.81216 7.72824L4.24045 1.52603C2.93808 2.37466 1.86856 3.53218 1.12829 4.89426C0.388023 6.25634 0.000276635 7.78016 0 9.32839C0 10.6822 0.532797 12.3368 1.17084 13.8498C1.78982 15.2894 2.50624 16.6857 3.31518 18.0289L7.11492 24.242H11.6733L14.5763 19.4939L12.4297 15.7573L11.1822 17.8109ZM17.8059 13.4944C18.4957 12.1164 18.8322 10.5902 18.7857 9.05166C18.7392 7.51308 18.3109 6.00979 17.5391 4.67545C16.7674 3.34111 15.6759 2.21707 14.3618 1.40329C13.0477 0.589507 11.5518 0.1112 10.0069 0.0109002L11.6492 2.84495L11.1295 3.70607L8.98958 0C7.5944 0.0573637 6.22996 0.425391 4.99689 1.07694L14.3197 17.2877L15.0981 18.6437L15.473 18.0289C16.1755 16.8652 16.808 15.6612 17.3674 14.4231L16.7097 13.3636L15.1748 10.7302L15.6945 9.87994L17.8059 13.4944Z" fill="url(#paint0_linear_1240_28693)"/>
<path d="M11.1822 17.8107L10.6845 16.9387L11.9408 14.8851L8.30774 8.59352L7.08647 10.5904C7.07527 10.608 7.06281 10.6248 7.0492 10.6406L6.55587 9.78164L7.81222 7.72805L4.76234 2.42837C3.62272 3.18821 2.68837 4.21485 2.04147 5.418C1.39457 6.62114 1.05495 7.96392 1.05249 9.3282C1.05249 10.3463 1.41865 11.7262 2.14878 13.4441C2.74462 14.8355 3.43467 16.1852 4.21419 17.4837L8.3472 24.2418H10.4411L13.9799 18.456L12.4298 15.7571L11.1822 17.8107ZM17.168 12.3737C17.6263 11.2142 17.8162 9.96687 17.7236 8.72437C17.6309 7.48188 17.2582 6.27607 16.6329 5.19638C16.0076 4.11669 15.1458 3.19083 14.1115 2.48748C13.0772 1.78412 11.8969 1.32133 10.6582 1.13342L11.6492 2.84912L11.1296 3.70587L9.59478 1.0484H9.39745C8.04763 1.04314 6.71693 1.36568 5.52097 1.988L9.38868 8.71996L14.5018 17.6036L14.5763 17.4815C15.3571 16.1845 16.0486 14.8363 16.6461 13.4463L16.6637 13.4071L16.7031 13.3373L15.1946 10.7212L15.7143 9.87103L17.168 12.3737Z" fill="url(#paint1_linear_1240_28693)"/>
<defs>
<linearGradient id="paint0_linear_1240_28693" x1="4.65923" y1="1.50423" x2="12.1764" y2="14.4912" gradientUnits="userSpaceOnUse">
<stop stop-color="#ABDFFF"/>
<stop offset="0.8" stop-color="#5CAEE1"/>
</linearGradient>
<linearGradient id="paint1_linear_1240_28693" x1="14.0852" y1="17.5862" x2="5.15491" y2="2.20064" gradientUnits="userSpaceOnUse">
<stop stop-color="#5BC0FF"/>
<stop offset="1" stop-color="#3CB4FF"/>
</linearGradient>
</defs>
</svg>
