<svg width="26" height="26" viewBox="0 0 26 26" fill="none" xmlns="http://www.w3.org/2000/svg">
<path d="M21.6784 9.51863V4.32134H16.4811L12.8131 0.65332L9.14509 4.32134H3.94781V9.51863L0.279785 13.1867L3.94781 16.8547V22.052H9.14509L12.8131 25.72L16.4811 22.052H21.6784V16.8547L25.3465 13.1867L21.6784 9.51863ZM12.8131 19.8356C11.8269 19.8356 10.8849 19.614 10.0427 19.2261C12.3255 18.1734 13.9213 15.8684 13.9213 13.1867C13.9213 10.5049 12.3255 8.19992 10.0427 7.14716C10.8849 6.7593 11.8269 6.53767 12.8131 6.53767C16.4811 6.53767 19.4621 9.51863 19.4621 13.1867C19.4621 16.8547 16.4811 19.8356 12.8131 19.8356Z" fill="black"/>
</svg>
