<svg width="20" height="21" viewBox="0 0 20 21" fill="none" xmlns="http://www.w3.org/2000/svg">
<path d="M15.8333 9.84717H4.16667C3.24619 9.84717 2.5 10.5934 2.5 11.5138V17.3472C2.5 18.2676 3.24619 19.0138 4.16667 19.0138H15.8333C16.7538 19.0138 17.5 18.2676 17.5 17.3472V11.5138C17.5 10.5934 16.7538 9.84717 15.8333 9.84717Z" stroke="white" stroke-linecap="round" stroke-linejoin="round"/>
<path d="M5.83331 9.84717V6.51383C5.83331 5.40877 6.2723 4.34896 7.0537 3.56756C7.8351 2.78615 8.89491 2.34717 9.99998 2.34717C11.105 2.34717 12.1649 2.78615 12.9463 3.56756C13.7277 4.34896 14.1666 5.40877 14.1666 6.51383V9.84717" stroke="white" stroke-linecap="round" stroke-linejoin="round"/>
</svg>
