<svg width="769" height="181" viewBox="0 0 769 181" fill="none" xmlns="http://www.w3.org/2000/svg">
<path d="M80.63 130V139.49H4V130H36V125C20.52 123.89 11.58 119 11.58 110.72C11.58 101.41 22.91 96.25 42.26 96.25C61.61 96.25 73.04 101.41 73.04 110.72C73.04 119.1 64.04 123.99 48.16 125V130H80.63ZM24.88 170.59H73.53V179.71H12.81V157.41H59.34V153H12.72V144H71.32V165.8H24.88V170.59ZM42.29 116.32C54.64 116.32 60.45 114.66 60.45 110.7C60.45 106.92 54.64 105.17 42.29 105.17C29.94 105.17 24.23 106.92 24.23 110.7C24.23 114.7 30.04 116.32 42.29 116.32" fill="#010100"/>
<path d="M102.38 150.87C113.522 150.941 124.651 150.048 135.64 148.2L136.75 158.06C124.03 160.36 112.33 160.91 97.5896 160.91H90.3996V125.91H117.31V112.35H90.3096V102.68H129.31V135.48H102.38V150.87ZM165.68 137.51H153.52V180.51H141.36V95.4004H153.52V127.46H165.68V137.51Z" fill="#010100"/>
<path d="M213.88 96.8804H225.22V176.58H213.88V136.58H207.25C206.14 153.16 199.25 163.12 188.91 163.12C177.67 163.12 170.58 151.51 170.58 132.25C170.58 112.99 177.67 101.47 188.91 101.47C198.96 101.47 205.78 110.87 207.16 126.72H213.88V96.8804ZM196.28 132.26C196.28 119.26 193.61 112.91 188.91 112.91C184.21 112.91 181.54 119.26 181.54 132.26C181.54 145.26 184.31 151.7 188.91 151.7C193.51 151.7 196.28 145.34 196.28 132.26ZM242.63 180.26H231.11V95.4004H242.63V180.26Z" fill="#010100"/>
<path d="M329.63 152.901H312.21V180.451H300.14V152.901H282.63V180.451H270.47V152.901H252.68V143.131H329.63V152.901ZM320.78 134.751H262.45V99.5508H319.86V109.221H274.86V125.001H320.75L320.78 134.751Z" fill="#010100"/>
<path d="M439.93 133.46V143H363.55V133.42H391.83V118.62H404V133.46H439.93ZM431.36 164.46C431.36 174.32 419.57 180.4 401.23 180.4C382.89 180.4 371.23 174.32 371.23 164.46C371.23 154.6 383.03 148.46 401.23 148.46C419.43 148.46 431.36 154.55 431.36 164.46ZM416.53 127.78C418.11 121.61 418.854 115.257 418.74 108.89H372.11V99.2695H430.9V106.27C430.9 113 430.9 120.19 428.5 128.94L416.53 127.78ZM419.29 164.46C419.29 159.85 412.75 157.54 401.23 157.54C389.71 157.54 383.23 159.85 383.23 164.46C383.23 169.07 389.78 171.27 401.23 171.27C412.68 171.27 419.29 168.97 419.29 164.46Z" fill="#010100"/>
<path d="M523.15 152.621H490.53V180.361H478.36V152.621H446.3V143.001H523.15V152.621ZM513.93 133.921H455.14V99.6406H513.93V133.921ZM502 109.221H467.12V124.331H502V109.221Z" fill="#010100"/>
<path d="M602.49 169.21V178.88H539.56V153.63H551.35V142.3C543.89 142.67 536.79 142.76 530.43 142.76L528.87 133.09C544.35 132.99 564.99 132.81 582.87 130.51L583.69 139.17C576.982 140.341 570.216 141.142 563.42 141.57V157.57H551.72V169.18L602.49 169.21ZM535 113.55C535 104.55 543.75 98.3502 556.2 98.3502C568.65 98.3502 577.3 104.52 577.3 113.55C577.3 122.58 568.54 128.66 556.2 128.66C543.86 128.66 535 122.58 535 113.55ZM546.52 113.55C546.52 117.7 550.52 119.82 556.2 119.82C561.88 119.82 565.78 117.7 565.78 113.55C565.78 109.4 561.78 107.2 556.2 107.2C550.62 107.2 546.52 109.41 546.52 113.55ZM588.44 144.79V95.4902H600.61V159.81H588.48V153.08H572.54V144.79H588.44Z" fill="#010100"/>
<path d="M662.12 112.54H612.12V103H631V95H643.26V103H662.15L662.12 112.54ZM637.12 146.45C624.96 146.45 616.3 140.09 616.3 130.78C616.3 121.47 624.96 115.21 637.12 115.21C649.28 115.21 658 121.57 658 130.78C658 139.99 649.43 146.45 637.17 146.45H637.12ZM622.43 152.16H679V180.45H666.82V161.93H622.4L622.43 152.16ZM637.17 137.23C642.61 137.23 646.39 135.11 646.39 130.78C646.39 126.45 642.61 124.43 637.17 124.43C631.73 124.43 627.96 126.54 627.96 130.78C627.96 135.02 631.65 137.23 637.17 137.23ZM690.25 127.38H679V148.66H666.82V95.49H679V117.33H690.24L690.25 127.38Z" fill="#010100"/>
<path d="M768.37 169.21V178.88H705.43V153.63H717.23V142.3C709.76 142.67 702.67 142.76 696.31 142.76L694.74 133.09C710.22 132.99 730.86 132.81 748.74 130.51L749.57 139.17C742.863 140.34 736.096 141.141 729.3 141.57V157.57H717.59V169.18L768.37 169.21ZM700.92 113.55C700.92 104.55 709.67 98.3502 722.11 98.3502C734.55 98.3502 743.21 104.52 743.21 113.55C743.21 122.58 734.46 128.66 722.11 128.66C709.76 128.66 700.92 122.58 700.92 113.55V113.55ZM712.44 113.55C712.44 117.7 716.44 119.82 722.11 119.82C727.78 119.82 731.69 117.7 731.69 113.55C731.69 109.4 727.69 107.2 722.11 107.2C716.53 107.2 712.44 109.41 712.44 113.55ZM754.36 144.79V95.4902H766.52V159.81H754.36V153.08H738.42V144.79H754.36Z" fill="#010100"/>
<path d="M599.83 25.1208C599.83 39.2608 593.33 51.7108 577.07 59.6808L574.67 56.0008C587.82 49.7308 594.37 40.3408 595.3 28.7108H576.9V25.1208H599.83ZM614.19 68.8008H609.71V19.8008H614.19V68.8008Z" fill="#010100"/>
<path d="M648.59 46.6305V52.8605H663.05V68.8605H658.58V56.4605H629.15V52.8605H644.15V46.6305H624.24V43.0005H668.51V46.6005L648.59 46.6305ZM664.31 39.1505C656.72 38.0005 649.52 34.0005 646.4 28.4505C643.4 34.0205 636.09 37.9005 628.5 39.1505L626.81 35.6105C635.54 34.4105 644.11 29.0005 644.11 22.6705V20.4805H648.7V22.6705C648.7 28.8905 657.32 34.4105 665.95 35.6105L664.31 39.1505Z" fill="#010100"/>
<path d="M705.15 47.0001C694.99 48.6901 683.26 49.0001 674.57 49.0001L674.14 45.3401C677.25 45.3401 680.8 45.2801 684.51 45.2301V34.5701H688.93V45.0001C694.28 44.7801 699.85 44.4001 704.82 43.6901L705.15 47.0001ZM695.76 40.2901C696.643 36.0338 697.082 31.6971 697.07 27.3501H677.07V23.6501H701.41V26.2201C701.491 31.0901 701.072 35.9556 700.16 40.7401L695.76 40.2901ZM686.09 64.0901H714.15V67.7501H681.62V53.3501H686.09V64.0901ZM719.61 35.8101V39.5201H712.61V56.7301H708.13V19.8301H712.61V35.7701L719.61 35.8101Z" fill="#010100"/>
<path d="M732 53.2893C739.968 53.3673 747.928 52.7853 755.8 51.5493L756.24 55.2093C748.084 56.5201 739.83 57.119 731.57 56.9993H727.57V38.2293H745.57V27.9993H727.37V24.3593H750.08V41.8793H732V53.2893ZM764.86 68.8493H760.4V19.7793H764.87L764.86 68.8493Z" fill="#010100"/>
<path d="M38.22 75.3098C16.43 75.3098 0 59.7298 0 39.0798C0 18.4298 16.43 2.83984 38.22 2.83984C60.01 2.83984 76.45 18.4198 76.45 39.0798C76.45 59.7398 60 75.3098 38.22 75.3098ZM38.22 19.8598C27.22 19.8598 19.48 27.7598 19.48 39.0798C19.48 50.3998 27.19 58.2898 38.22 58.2898C49.25 58.2898 57 50.3898 57 39.0798C57 27.7698 49.26 19.8598 38.22 19.8598Z" fill="#FEBC56"/>
<path d="M2 39.0803C2 19.3903 17.31 4.82031 38.22 4.82031C59.13 4.82031 74.47 19.3003 74.47 39.0803C74.47 58.8603 59 73.3303 38.22 73.3303C17.44 73.3303 2 58.7603 2 39.0803ZM59 39.0803C59 26.4903 50.1 17.8803 38.27 17.8803C26.44 17.8803 17.5 26.4903 17.5 39.0803C17.5 51.6703 26.39 60.2703 38.22 60.2703C50.05 60.2703 59 51.6603 59 39.0803Z" fill="#073B87"/>
<path d="M96.0296 0H77.3096V74.18H96.0296V0Z" fill="#FEBC56"/>
<path d="M94.05 1.98047H79.29V72.2005H94.05V1.98047Z" fill="#073B87"/>
<path d="M118.84 0H100.12V74.18H118.84V0Z" fill="#FEBC56"/>
<path d="M116.86 1.98047H102.1V72.2005H116.86V1.98047Z" fill="#073B87"/>
<path d="M140.61 74.9305C128.05 74.9305 119.61 67.9305 119.61 57.5305C119.61 51.1005 122.71 40.3105 143.45 40.3105H153C152.28 36.2305 149.12 34.2405 143.41 34.2405C138.595 34.202 133.895 35.7092 130 38.5405L128.13 40.0005L120.94 26.0005L122.34 25.0005C128.07 20.9105 136.71 18.4805 145.44 18.4805C162.77 18.4805 171.93 26.9805 171.93 43.0805V74.0805H154.15V71.0005C150.83 73.5705 146.24 74.9005 140.61 74.9005V74.9305ZM145.06 52.8505C137.96 52.8505 137.96 55.6405 137.96 56.8505C137.96 60.7205 142.81 61.0205 144.3 61.0205C148.6 61.0205 151.82 59.0905 153.21 55.7205V52.8805L145.06 52.8505Z" fill="#FEBC56"/>
<path d="M170 43.1491V72.1991H156.13V65.8591C153.39 70.4891 148.13 72.9591 140.61 72.9591C128.69 72.9591 121.61 66.3291 121.61 57.5291C121.61 48.5291 127.95 42.2891 143.47 42.2891H155.21C155.21 35.9491 151.42 32.2891 143.47 32.2891C138.195 32.2391 133.043 33.8908 128.78 36.9991L123.49 26.6891C129.07 22.6891 137.3 20.5391 145.49 20.5391C161 20.5291 170 27.7191 170 43.1491ZM155.24 56.1491V50.8991H145.06C138.15 50.8991 135.98 53.4591 135.98 56.8991C135.98 60.5891 139.1 63.0491 144.3 63.0491C149.22 63.0491 153.48 60.7791 155.19 56.1391" fill="#073B87"/>
<path d="M201.74 74.7398C184.74 74.7398 172.74 63.3798 172.74 47.1198C172.74 31.1698 184.16 19.5898 199.9 19.5898C215.64 19.5898 226.72 30.9998 226.72 47.3998C226.72 48.4698 226.56 49.9398 226.52 50.3998L226.32 52.1598H186.32C188.16 58.7398 194.11 62.8698 202.08 62.8698C207.46 62.8698 211.84 61.0498 215.08 57.4598L216.59 55.7898L224.17 64.6598L223 65.9098C218.06 71.6898 210.69 74.7398 201.72 74.7398H201.74ZM213.65 41.6398C212.813 38.6431 211.019 36.0026 208.541 34.1216C206.062 32.2405 203.037 31.2222 199.925 31.2222C196.814 31.2222 193.788 32.2405 191.31 34.1216C188.832 36.0026 187.037 38.6431 186.2 41.6398H213.65Z" fill="#073B87"/>
<path d="M224.55 50.1503H183.86C185 59.0003 192.09 64.8203 202 64.8203C207.87 64.8203 212.79 62.8203 216.48 58.7603L221.48 64.6303C216.94 69.9203 210.03 72.7603 201.7 72.7603C185.52 72.7603 174.7 62.0703 174.7 47.1203C174.7 32.1703 185.47 21.5703 200 21.5703C214.53 21.5703 224.74 32.0003 224.74 47.4003C224.723 48.3196 224.66 49.2374 224.55 50.1503ZM183.86 43.6203H216C215.569 39.6557 213.688 35.99 210.719 33.327C207.751 30.6639 203.903 29.1911 199.915 29.1911C195.927 29.1911 192.08 30.6639 189.111 33.327C186.142 35.99 184.262 39.6557 183.83 43.6203" fill="#FEBC56"/>
<path d="M253.29 74.74C237.19 74.74 225.95 63.38 225.95 47.12C225.95 30.86 237.19 19.59 253.29 19.59C258.911 19.4659 264.4 21.2968 268.82 24.77V0H281.82V74.18H269.19V69.3C264.714 72.9615 259.071 74.8922 253.29 74.74V74.74ZM254.05 31.5C245.05 31.5 239.05 37.77 239.05 47.12C239.05 56.47 245.2 62.84 254.05 62.84C262.9 62.84 268.91 56.37 268.91 47.12C268.91 37.87 262.8 31.5 254.05 31.5" fill="#073B87"/>
<path d="M279.88 2V72.2H271.17V64.2C267.11 69.88 260.67 72.71 253.29 72.71C238.62 72.71 227.93 62.4 227.93 47.07C227.93 31.74 238.62 21.52 253.29 21.52C260.39 21.52 266.63 24.17 270.8 29.52V2H279.88ZM270.88 47.14C270.88 36.44 263.59 29.54 254.04 29.54C244.49 29.54 237.1 36.44 237.1 47.14C237.1 57.84 244.38 64.83 254.04 64.83C263.7 64.83 270.88 57.83 270.88 47.14Z" fill="#FEBC56"/>
<path d="M41.0898 26.6992L63.5398 39.6592L41.0898 52.6292V26.6992Z" fill="#FEBC56"/>
<path d="M59.5803 39.6609L43.0703 30.1309V49.2009L59.5803 39.6609Z" fill="#073B87"/>
<path d="M307.33 74.2698C292.33 74.2698 283.77 65.5798 283.77 50.4298V19.5898H296.77V49.3898C296.77 57.8698 300.66 62.1698 308.33 62.1698C316.93 62.1698 321.87 56.8198 321.87 47.4998V19.5898H334.87V73.6998H322.38V69.1698C318.111 72.5718 312.787 74.3757 307.33 74.2698" fill="#073B87"/>
<path d="M333 21.5703V71.7203H324.39V64.1503C320.7 69.3603 314.45 72.2903 307.39 72.2903C294.39 72.2903 285.81 65.1903 285.81 50.4303V21.5703H294.89V49.3903C294.89 59.2303 299.81 64.1503 308.43 64.1503C317.89 64.1503 323.95 58.2903 323.95 47.5003V21.5703H333Z" fill="#FEBC56"/>
<path d="M555.6 47.3906H353.38V50.1006H555.6V47.3906Z" fill="#010100"/>
</svg>
