<svg width="84" height="19" viewBox="0 0 84 19" fill="none" xmlns="http://www.w3.org/2000/svg">
<path d="M9.50066 18.7711C4.08414 18.7711 0 14.8877 0 9.74066C0 4.59361 4.08414 0.707764 9.50066 0.707764C14.9172 0.707764 19.0038 4.59111 19.0038 9.74066C19.0038 14.8902 14.9147 18.7711 9.50066 18.7711ZM9.50066 4.95004C6.7663 4.95004 4.8423 6.91913 4.8423 9.74066C4.8423 12.5622 6.75884 14.5288 9.50066 14.5288C12.2425 14.5288 14.169 12.5597 14.169 9.74066C14.169 6.92162 12.245 4.95004 9.50066 4.95004Z" fill="#EDBA22"/>
<path d="M0.49707 9.74055C0.49707 4.83278 4.3028 1.20117 9.50057 1.20117C14.6983 1.20117 18.5115 4.81034 18.5115 9.74055C18.5115 14.6708 14.666 18.2774 9.50057 18.2774C4.33512 18.2774 0.49707 14.6458 0.49707 9.74055ZM14.666 9.74055C14.666 6.60247 12.4537 4.45641 9.513 4.45641C6.57232 4.45641 4.35003 6.60247 4.35003 9.74055C4.35003 12.8786 6.55989 15.0222 9.50057 15.0222C12.4413 15.0222 14.666 12.8761 14.666 9.74055Z" fill="white"/>
<path d="M23.8709 0H19.2175V18.4895H23.8709V0Z" fill="#EDBA22"/>
<path d="M23.3787 0.493408H19.7097V17.9959H23.3787V0.493408Z" fill="white"/>
<path d="M29.5411 0H24.8877V18.4895H29.5411V0Z" fill="#EDBA22"/>
<path d="M29.0489 0.493408H25.3799V17.9959H29.0489V0.493408Z" fill="white"/>
<path d="M34.9526 18.6765C31.8304 18.6765 29.7324 16.9317 29.7324 14.3395C29.7324 12.7368 30.503 10.0474 35.6585 10.0474H38.0324C37.8535 9.03043 37.068 8.53442 35.6486 8.53442C34.4517 8.52482 33.2833 8.90049 32.3151 9.6062L31.8503 9.97011L30.063 6.48058L30.411 6.23133C31.8354 5.21188 33.9831 4.6062 36.1532 4.6062C40.4611 4.6062 42.738 6.72485 42.738 10.7378V18.4646H38.3183V17.6969C37.493 18.3375 36.3521 18.669 34.9526 18.669V18.6765ZM36.0587 13.173C34.2938 13.173 34.2938 13.8684 34.2938 14.17C34.2938 15.1346 35.4994 15.2094 35.8698 15.2094C36.9387 15.2094 37.7391 14.7283 38.0847 13.8884V13.1805L36.0587 13.173Z" fill="#EDBA22"/>
<path d="M42.2583 10.7552V17.996H38.8105V16.4157C38.1294 17.5698 36.8219 18.1854 34.9526 18.1854C31.9895 18.1854 30.2296 16.5329 30.2296 14.3395C30.2296 12.0962 31.8056 10.5409 35.6635 10.5409H38.5818C38.5818 8.96061 37.6397 8.04835 35.6635 8.04835C34.3521 8.0359 33.0716 8.44757 32.0119 9.22232L30.6969 6.65253C32.084 5.65552 34.1298 5.11963 36.1657 5.11963C40.0211 5.11714 42.2583 6.90926 42.2583 10.7552ZM38.5893 13.9955V12.6869H36.0588C34.3411 12.6869 33.8017 13.325 33.8017 14.1824C33.8017 15.1022 34.5772 15.7153 35.8699 15.7153C37.0929 15.7153 38.1518 15.1495 38.5769 13.993" fill="white"/>
<path d="M50.1482 18.6291C45.9224 18.6291 42.9395 15.7976 42.9395 11.7447C42.9395 7.76915 45.7782 4.88281 49.6908 4.88281C53.6035 4.88281 56.3577 7.72678 56.3577 11.8145C56.3577 12.0812 56.3179 12.4476 56.308 12.5623L56.2583 13.001H46.3151C46.7725 14.641 48.2516 15.6705 50.2327 15.6705C51.5701 15.6705 52.6589 15.2168 53.4643 14.322L53.8396 13.9057L55.7238 16.1166L55.433 16.4282C54.205 17.8689 52.373 18.6291 50.1432 18.6291H50.1482ZM53.1088 10.3788C52.9008 9.63189 52.4547 8.97374 51.8387 8.50488C51.2226 8.03601 50.4705 7.7822 49.697 7.7822C48.9236 7.7822 48.1715 8.03601 47.5554 8.50488C46.9394 8.97374 46.4933 9.63189 46.2853 10.3788H53.1088Z" fill="white"/>
<path d="M55.8183 12.5001H45.7036C45.987 14.706 47.7494 16.1566 50.2128 16.1566C51.672 16.1566 52.895 15.6581 53.8122 14.6462L55.0551 16.1093C53.9266 17.4278 52.2089 18.1357 50.1382 18.1357C46.1163 18.1357 43.4266 15.4712 43.4266 11.7449C43.4266 8.01854 46.1038 5.37646 49.7157 5.37646C53.3275 5.37646 55.8655 7.97617 55.8655 11.8146C55.8613 12.0438 55.8455 12.2726 55.8183 12.5001ZM45.7036 10.8725H53.6929C53.5856 9.88428 53.1182 8.97062 52.3802 8.30684C51.6423 7.64307 50.6859 7.27596 49.6945 7.27596C48.7032 7.27596 47.7468 7.64307 47.0088 8.30684C46.2709 8.97062 45.8034 9.88428 45.6962 10.8725" fill="#EDBA22"/>
<path d="M62.9624 18.6291C58.9603 18.6291 56.1663 15.7976 56.1663 11.7448C56.1663 7.69193 58.9603 4.88285 62.9624 4.88285C64.3595 4.85193 65.724 5.30828 66.8228 6.17398V0H70.0543V18.4895H66.9148V17.2732C65.8021 18.1858 64.3994 18.667 62.9624 18.6291ZM63.1513 7.85145C60.9141 7.85145 59.4226 9.41426 59.4226 11.7448C59.4226 14.0753 60.9514 15.663 63.1513 15.663C65.3512 15.663 66.8452 14.0504 66.8452 11.7448C66.8452 9.43918 65.3264 7.85145 63.1513 7.85145Z" fill="white"/>
<path d="M69.5721 0.498535V17.996H67.407V16.002C66.3978 17.4178 64.7969 18.1232 62.9624 18.1232C59.3158 18.1232 56.6584 15.5534 56.6584 11.7323C56.6584 7.9113 59.3158 5.36394 62.9624 5.36394C64.7273 5.36394 66.2784 6.02446 67.315 7.35796V0.498535H69.5721ZM67.3349 11.7498C67.3349 9.08278 65.5228 7.36294 63.1488 7.36294C60.7749 7.36294 58.9379 9.08278 58.9379 11.7498C58.9379 14.4168 60.7476 16.1591 63.1488 16.1591C65.5501 16.1591 67.3349 14.4143 67.3349 11.7498Z" fill="#EDBA22"/>
<path d="M10.2141 6.65503L15.7947 9.88534L10.2141 13.1181V6.65503Z" fill="#EDBA22"/>
<path d="M14.8101 9.88514L10.7061 7.50977V12.263L14.8101 9.88514Z" fill="white"/>
<path d="M76.3956 18.5119C72.6669 18.5119 70.5391 16.3459 70.5391 12.5698V4.88281H73.7706V12.3105C73.7706 14.4242 74.7375 15.496 76.6441 15.496C78.7819 15.496 80.0099 14.1625 80.0099 11.8394V4.88281H83.2414V18.3699H80.1367V17.2407C79.0755 18.0887 77.7522 18.5383 76.3956 18.5119Z" fill="white"/>
<path d="M82.7766 5.37646V17.8765H80.6363V15.9896C79.719 17.2882 78.1654 18.0185 76.4105 18.0185C73.1789 18.0185 71.0461 16.2488 71.0461 12.5699V5.37646H73.3032V12.3107C73.3032 14.7633 74.5262 15.9896 76.669 15.9896C79.0205 15.9896 80.5269 14.529 80.5269 11.8396V5.37646H82.7766Z" fill="#EDBA22"/>
</svg>
