<svg width="191" height="45" viewBox="0 0 191 45" fill="none" xmlns="http://www.w3.org/2000/svg">
<path d="M21.796 44.9999C9.37024 44.9999 0 35.6915 0 23.3482C0 11.005 9.37024 1.69653 21.796 1.69653C34.2219 1.69653 43.5921 11.005 43.5921 23.3482C43.5921 35.6915 34.213 44.9999 21.796 44.9999ZM21.796 11.8641C15.502 11.8641 11.1074 16.5863 11.1074 23.3482C11.1074 30.1101 15.502 34.8323 21.796 34.8323C28.0901 34.8323 32.4847 30.107 32.4847 23.3482C32.4847 16.5894 28.0901 11.8641 21.796 11.8641Z" fill="#FEBC56"/>
<path d="M1.12964 23.3483C1.12964 11.5861 9.87165 2.8772 21.7961 2.8772C33.6674 2.8772 42.4625 11.5305 42.4625 23.3483C42.4625 35.1662 33.6674 43.8164 21.7961 43.8164C9.87165 43.8164 1.12964 35.1075 1.12964 23.3483ZM33.6143 23.3483C33.6143 15.8262 28.5413 10.6775 21.7961 10.6775C15.0508 10.6775 9.97783 15.8231 9.97783 23.3483C9.97783 30.8736 15.0508 36.0192 21.7961 36.0192C28.5413 36.0192 33.6231 30.8674 33.6231 23.3483" fill="#073B87"/>
<path d="M54.7615 0H44.0876V44.3201H54.7615V0Z" fill="#FEBC56"/>
<path d="M53.6349 1.18359H45.2173V43.1395H53.6349V1.18359Z" fill="#073B87"/>
<path d="M67.7684 0H57.0916V44.3201H67.7684V0Z" fill="#FEBC56"/>
<path d="M66.6388 1.18359H58.2212V43.1395H66.6388V1.18359Z" fill="#073B87"/>
<path d="M80.1823 44.7713C73.0212 44.7713 68.2078 40.593 68.2078 34.372C68.2078 30.5305 69.9774 24.087 81.8015 24.087H87.2727C86.8568 21.6486 85.0577 20.4588 81.8015 20.4588C78.979 20.4588 76.0414 21.4446 74.1331 23.03L73.0566 23.9263L68.9599 15.5821L69.7562 14.9887C73.0241 12.5503 77.9496 11.0947 82.9282 11.0947C92.8116 11.0947 98.035 16.1754 98.035 25.7929V44.3356H87.892V42.4566C85.9956 44.0018 83.3824 44.7868 80.1705 44.7868L80.1823 44.7713ZM82.707 31.6153C78.6545 31.6153 78.6545 33.281 78.6545 33.9918C78.6545 36.3066 81.424 36.4858 82.2764 36.4858C84.7244 36.4858 86.5648 35.3362 87.3523 33.3212V31.6153H82.707Z" fill="#FEBC56"/>
<path d="M96.9113 25.7803V43.1363H89.0335V39.3474C87.4673 42.1288 84.4442 43.5906 80.1853 43.5906C73.3869 43.5906 69.3374 39.6317 69.3374 34.3718C69.3374 29.0006 72.9534 25.2704 81.8045 25.2704H88.4819C88.4819 21.4815 86.323 19.2749 81.7898 19.2749C78.7135 19.2749 75.5311 20.3504 73.4253 22.1027L70.4169 15.9403C73.5993 13.5669 78.2947 12.2627 82.9341 12.2627C91.7823 12.2627 96.9113 16.5615 96.9113 25.7803ZM88.4819 33.525V30.416H82.7188C78.7784 30.416 77.5397 31.9427 77.5397 33.9762C77.5397 36.1828 79.3093 37.6538 82.2882 37.6538C85.0931 37.6538 87.5204 36.294 88.4819 33.525Z" fill="#073B87"/>
<path d="M115.041 44.6601C105.323 44.6601 98.5247 37.8612 98.5247 28.1541C98.5247 18.6231 105.037 11.7036 114.006 11.7036C122.975 11.7036 129.284 18.5428 129.284 28.324C129.284 28.9607 129.195 29.8414 129.169 30.0949L129.054 31.1456H106.22C107.267 35.0767 110.661 37.5459 115.203 37.5459C118.271 37.5459 120.769 36.4581 122.624 34.3164L123.482 33.3182L127.806 38.6307L127.175 39.4002C124.353 42.8522 120.156 44.6756 115.041 44.6756V44.6601ZM121.84 24.8967C120.925 21.1017 117.914 18.6509 114.015 18.6509C110.116 18.6509 107.104 21.1017 106.178 24.8782L121.84 24.8967Z" fill="#073B87"/>
<path d="M128.045 29.9773H104.842C105.491 35.2311 109.538 38.7418 115.203 38.7418C118.548 38.7418 121.356 37.5551 123.462 35.1229L126.323 38.6306C123.733 41.7952 119.793 43.4918 115.044 43.4918C105.816 43.4918 99.666 37.1039 99.666 28.1694C99.666 19.2905 105.762 12.9026 114.018 12.9026C122.273 12.9026 128.157 19.1206 128.157 28.3548C128.157 28.806 128.104 29.4859 128.048 29.9928L128.045 29.9773ZM104.842 26.0617H123.187C122.651 21.0305 119.035 17.4672 114.015 17.4672C109.051 17.4672 105.382 20.9717 104.842 26.0617Z" fill="#FEBC56"/>
<path d="M144.435 44.66C135.253 44.66 128.844 37.8611 128.844 28.154C128.844 18.4469 135.253 11.7035 144.435 11.7035C147.865 11.7035 150.923 12.7852 153.283 14.794V0H160.742V44.3201H153.504V41.412C151.127 43.5259 147.998 44.6631 144.435 44.6631V44.66ZM144.865 18.8208C139.763 18.8208 136.336 22.5726 136.336 28.1571C136.336 33.6859 139.843 37.5489 144.865 37.5489C149.888 37.5489 153.342 33.6859 153.342 28.154C153.342 22.6221 149.856 18.8177 144.865 18.8177" fill="#073B87"/>
<path d="M159.598 1.18359V43.1364H154.634V38.3864C152.313 41.7859 148.644 43.4764 144.435 43.4764C136.07 43.4764 129.983 37.314 129.983 28.1539C129.983 18.9938 136.082 12.8871 144.435 12.8871C148.482 12.8871 152.044 14.4694 154.416 17.6928V1.18359H159.598ZM154.472 28.1539C154.472 21.7629 150.316 17.6464 144.866 17.6464C139.362 17.6464 135.206 21.7752 135.206 28.1539C135.206 34.5326 139.362 38.7263 144.866 38.7263C150.316 38.7263 154.472 34.5419 154.472 28.1539Z" fill="#FEBC56"/>
<path d="M23.4302 15.9529L36.2335 23.6975L23.4302 31.4422V15.9529Z" fill="#FEBC56"/>
<path d="M33.9772 23.6976L24.5598 18.002V29.3933L33.9772 23.6976Z" fill="#073B87"/>
<path d="M175.247 44.376C166.712 44.376 161.816 39.184 161.816 30.1321V11.7038H169.251V29.5109C169.251 34.5793 171.469 37.1505 175.84 37.1505C180.748 37.1505 183.562 33.9519 183.562 28.3798V11.6914H191V44.0391H183.833V41.3257C181.568 43.2912 178.568 44.376 175.247 44.376Z" fill="#073B87"/>
<path d="M189.87 12.8872V42.8645H184.963V38.3216C182.857 41.4337 179.294 43.1829 175.247 43.1829C167.853 43.1829 162.942 38.9459 162.942 30.1226V12.8872H168.116V29.5107C168.116 35.3826 170.92 38.3309 175.831 38.3309C181.229 38.3309 184.679 34.8263 184.679 28.3796V12.8872H189.87Z" fill="#FEBC56"/>
</svg>