<svg viewBox="0 0 32 32" fill="none" xmlns="http://www.w3.org/2000/svg">
<path d="M19.3333 16.7868L20.5333 21.9602L16 19.2268L11.4667 21.9602L12.6667 16.8002L8.66667 13.3468L13.9467 12.8935L16 8.02683L18.0533 12.8802L23.3333 13.3335L19.3333 16.7868ZM16 4.2535L25.3333 8.40016V14.6668C25.3333 20.6935 21.36 26.2535 16 27.9068C10.64 26.2535 6.66667 20.6935 6.66667 14.6668V8.40016L16 4.2535ZM16 1.3335L4 6.66683V14.6668C4 22.0668 9.12 28.9868 16 30.6668C22.88 28.9868 28 22.0668 28 14.6668V6.66683L16 1.3335Z" fill="white"/>
</svg>
