<svg width="32" height="32" viewBox="0 0 32 32" fill="none" xmlns="http://www.w3.org/2000/svg">
<path d="M19.3333 16.7866L20.5333 21.9599L16 19.2266L11.4667 21.9599L12.6667 16.7999L8.66667 13.3466L13.9467 12.8933L16 8.02658L18.0533 12.8799L23.3333 13.3333L19.3333 16.7866ZM16 4.25325L25.3333 8.39992V14.6666C25.3333 20.6933 21.36 26.2533 16 27.9066C10.64 26.2533 6.66667 20.6933 6.66667 14.6666V8.39992L16 4.25325ZM16 1.33325L4 6.66658V14.6666C4 22.0666 9.12 28.9866 16 30.6666C22.88 28.9866 28 22.0666 28 14.6666V6.66658L16 1.33325Z" fill="#C7C7C7"/>
</svg>
