<svg width="26" height="26" viewBox="0 0 26 26" fill="none" xmlns="http://www.w3.org/2000/svg">
<path d="M13 3.25C7.62391 3.25 3.25 7.62437 3.25 13C3.25 18.3841 7.61594 22.75 13 22.75C18.3761 22.75 22.75 18.3761 22.75 13C22.75 7.61547 18.3845 3.25 13 3.25ZM13 17.9219C11.8314 17.9219 10.7106 17.4576 9.88431 16.6313C9.05798 15.805 8.59375 14.6842 8.59375 13.5156C8.59375 12.347 9.05798 11.2263 9.88431 10.3999C10.7106 9.5736 11.8314 9.10938 13 9.10938H13.1973L12.5359 8.44844C12.4129 8.32536 12.3437 8.15843 12.3437 7.98438C12.3437 7.81032 12.4129 7.64339 12.5359 7.52031C12.659 7.39724 12.8259 7.32809 13 7.32809C13.1741 7.32809 13.341 7.39724 13.4641 7.52031L15.3391 9.39531C15.4 9.45625 15.4484 9.5286 15.4813 9.60822C15.5143 9.68785 15.5313 9.77319 15.5313 9.85938C15.5313 9.94556 15.5143 10.0309 15.4813 10.1105C15.4484 10.1902 15.4 10.2625 15.3391 10.3234L13.4641 12.1984C13.341 12.3215 13.1741 12.3907 13 12.3907C12.8259 12.3907 12.659 12.3215 12.5359 12.1984C12.4129 12.0754 12.3437 11.9084 12.3437 11.7344C12.3437 11.5603 12.4129 11.3934 12.5359 11.2703L13.3797 10.4266C13.2681 10.4219 13.1406 10.4219 13 10.4219C12.3881 10.4219 11.79 10.6033 11.2812 10.9433C10.7724 11.2832 10.3759 11.7664 10.1417 12.3317C9.90759 12.897 9.84632 13.5191 9.9657 14.1192C10.0851 14.7193 10.3797 15.2706 10.8124 15.7032C11.2451 16.1359 11.7963 16.4306 12.3964 16.5499C12.9966 16.6693 13.6186 16.608 14.1839 16.3739C14.7492 16.1397 15.2324 15.7432 15.5724 15.2344C15.9123 14.7257 16.0937 14.1275 16.0938 13.5156C16.0938 13.3416 16.1629 13.1747 16.286 13.0516C16.409 12.9285 16.576 12.8594 16.75 12.8594C16.924 12.8594 17.091 12.9285 17.214 13.0516C17.3371 13.1747 17.4062 13.3416 17.4062 13.5156C17.4049 14.6838 16.9402 15.8038 16.1142 16.6298C15.2881 17.4558 14.1682 17.9205 13 17.9219V17.9219Z" fill="#656565"/>
<circle cx="13" cy="13" r="13" fill="#222222"/>
<path d="M17.773 17.773C16.5515 18.9945 14.864 19.75 13 19.75C9.27209 19.75 6.25 16.7279 6.25 13C6.25 9.27209 9.27209 6.25 13 6.25C14.864 6.25 16.5515 7.00552 17.773 8.22704C18.3947 8.84879 19.75 10.375 19.75 10.375" stroke="white" stroke-width="2" stroke-linecap="round" stroke-linejoin="round"/>
<path d="M19.75 7V10.375H16.375" stroke="white" stroke-width="2" stroke-linecap="round" stroke-linejoin="round"/>
</svg>
