<svg width="32" height="32" viewBox="0 0 32 32" fill="none" xmlns="http://www.w3.org/2000/svg">
<path d="M15.655 6L15.342 6.10428L2.842 10.7014L0 11.73L1.655 12.3117V21.9166C1.058 22.2975 0.655 22.9923 0.655 23.8046C0.655 24.3869 0.865714 24.9453 1.24079 25.357C1.61586 25.7687 2.12457 26 2.655 26C3.18543 26 3.69414 25.7687 4.06921 25.357C4.44429 24.9453 4.655 24.3869 4.655 23.8046C4.655 22.9923 4.252 22.2975 3.655 21.9166V13.0692L5.655 13.7881V19.4138C5.655 20.3139 6.155 21.0604 6.749 21.5763C7.343 22.0889 8.081 22.4512 8.967 22.7761C10.741 23.4237 13.079 23.8046 15.655 23.8046C18.231 23.8046 20.569 23.4248 22.343 22.775C23.229 22.4512 23.967 22.0889 24.561 21.5752C25.155 21.0604 25.655 20.3139 25.655 19.4138V13.7881L28.468 12.7585L31.31 11.73L28.467 10.7003L15.967 6.10428L15.655 6ZM15.655 8.29967L25.03 11.73L15.655 15.1603L6.28 11.73L15.655 8.29967ZM7.655 14.5434L15.343 17.3557L15.655 17.4588L15.968 17.3546L23.655 14.5423V19.4138C23.655 19.4248 23.659 19.5521 23.342 19.8255C23.026 20.0999 22.459 20.4457 21.717 20.7179C20.235 21.2591 18.05 21.6092 15.655 21.6092C13.26 21.6092 11.075 21.2602 9.592 20.7168C8.852 20.4457 8.284 20.0988 7.968 19.8255C7.65 19.551 7.655 19.4248 7.655 19.4138V14.5423V14.5434Z" fill="white"/>
</svg>
