<svg width="24" height="24" viewBox="0 0 24 24" fill="none" xmlns="http://www.w3.org/2000/svg">
<path d="M21.4998 4H19.3331V5.33333H21.3331V20H2.66645V5.33333H4.66645V4H2.49978C2.34394 4.0026 2.19014 4.03588 2.04716 4.09794C1.90418 4.15999 1.77483 4.24961 1.66649 4.36166C1.55815 4.47371 1.47295 4.60601 1.41575 4.751C1.35855 4.89599 1.33047 5.05083 1.33312 5.20667V20.1267C1.33047 20.2825 1.35855 20.4373 1.41575 20.5823C1.47295 20.7273 1.55815 20.8596 1.66649 20.9717C1.77483 21.0837 1.90418 21.1733 2.04716 21.2354C2.19014 21.2974 2.34394 21.3307 2.49978 21.3333H21.4998C21.6556 21.3307 21.8094 21.2974 21.9524 21.2354C22.0954 21.1733 22.2247 21.0837 22.3331 20.9717C22.4414 20.8596 22.5266 20.7273 22.5838 20.5823C22.641 20.4373 22.6691 20.2825 22.6665 20.1267V5.20667C22.6691 5.05083 22.641 4.89599 22.5838 4.751C22.5266 4.60601 22.4414 4.47371 22.3331 4.36166C22.2247 4.24961 22.0954 4.15999 21.9524 4.09794C21.8094 4.03588 21.6556 4.0026 21.4998 4Z" fill="#545454"/>
<path d="M5.33344 9.33337H6.66677V10.6667H5.33344V9.33337Z" fill="#545454"/>
<path d="M9.33282 9.33337H10.6662V10.6667H9.33282V9.33337Z" fill="#545454"/>
<path d="M13.3334 9.33337H14.6667V10.6667H13.3334V9.33337Z" fill="#545454"/>
<path d="M17.3328 9.33337H18.6661V10.6667H17.3328V9.33337Z" fill="#545454"/>
<path d="M5.33344 12.6666H6.66677V14H5.33344V12.6666Z" fill="#545454"/>
<path d="M9.33282 12.6666H10.6662V14H9.33282V12.6666Z" fill="#545454"/>
<path d="M13.3334 12.6666H14.6667V14H13.3334V12.6666Z" fill="#545454"/>
<path d="M17.3328 12.6666H18.6661V14H17.3328V12.6666Z" fill="#545454"/>
<path d="M5.33344 16H6.66677V17.3333H5.33344V16Z" fill="#545454"/>
<path d="M9.33282 16H10.6662V17.3333H9.33282V16Z" fill="#545454"/>
<path d="M13.3334 16H14.6667V17.3333H13.3334V16Z" fill="#545454"/>
<path d="M17.3328 16H18.6661V17.3333H17.3328V16Z" fill="#545454"/>
<path d="M6.66667 6.66671C6.84348 6.66671 7.01305 6.59647 7.13807 6.47145C7.2631 6.34642 7.33333 6.17685 7.33333 6.00004V2.00004C7.33333 1.82323 7.2631 1.65366 7.13807 1.52864C7.01305 1.40361 6.84348 1.33337 6.66667 1.33337C6.48986 1.33337 6.32029 1.40361 6.19526 1.52864C6.07024 1.65366 6 1.82323 6 2.00004V6.00004C6 6.17685 6.07024 6.34642 6.19526 6.47145C6.32029 6.59647 6.48986 6.66671 6.66667 6.66671Z" fill="#545454"/>
<path d="M17.3329 6.66671C17.5097 6.66671 17.6792 6.59647 17.8043 6.47145C17.9293 6.34642 17.9995 6.17685 17.9995 6.00004V2.00004C17.9995 1.82323 17.9293 1.65366 17.8043 1.52864C17.6792 1.40361 17.5097 1.33337 17.3329 1.33337C17.1561 1.33337 16.9865 1.40361 16.8615 1.52864C16.7364 1.65366 16.6662 1.82323 16.6662 2.00004V6.00004C16.6662 6.17685 16.7364 6.34642 16.8615 6.47145C16.9865 6.59647 17.1561 6.66671 17.3329 6.66671Z" fill="#545454"/>
<path d="M8.66626 4H15.3329V5.33333H8.66626V4Z" fill="#545454"/>
</svg>
