<svg width="27" height="26" viewBox="0 0 27 26" fill="none" xmlns="http://www.w3.org/2000/svg">
<path d="M25.2086 4H22.5002V5.66667H25.0002V24H1.66688V5.66667H4.16688V4H1.45855C1.26375 4.00326 1.07149 4.04486 0.89277 4.12242C0.714047 4.19999 0.552356 4.31201 0.416932 4.45208C0.281508 4.59214 0.175004 4.75752 0.103502 4.93875C0.032001 5.11999 -0.00309664 5.31353 0.000214209 5.50833V24.1583C-0.00309664 24.3531 0.032001 24.5467 0.103502 24.7279C0.175004 24.9092 0.281508 25.0745 0.416932 25.2146C0.552356 25.3547 0.714047 25.4667 0.89277 25.5442C1.07149 25.6218 1.26375 25.6634 1.45855 25.6667H25.2086C25.4034 25.6634 25.5956 25.6218 25.7743 25.5442C25.9531 25.4667 26.1147 25.3547 26.2502 25.2146C26.3856 25.0745 26.4921 24.9092 26.5636 24.7279C26.6351 24.5467 26.6702 24.3531 26.6669 24.1583V5.50833C26.6702 5.31353 26.6351 5.11999 26.5636 4.93875C26.4921 4.75752 26.3856 4.59214 26.2502 4.45208C26.1147 4.31201 25.9531 4.19999 25.7743 4.12242C25.5956 4.04486 25.4034 4.00326 25.2086 4Z" fill="white"/>
<path d="M5 10.667H6.66667V12.3337H5V10.667Z" fill="white"/>
<path d="M10 10.667H11.6667V12.3337H10V10.667Z" fill="white"/>
<path d="M15 10.667H16.6667V12.3337H15V10.667Z" fill="white"/>
<path d="M20 10.667H21.6667V12.3337H20V10.667Z" fill="white"/>
<path d="M5 14.833H6.66667V16.4997H5V14.833Z" fill="white"/>
<path d="M10 14.833H11.6667V16.4997H10V14.833Z" fill="white"/>
<path d="M15 14.833H16.6667V16.4997H15V14.833Z" fill="white"/>
<path d="M20 14.833H21.6667V16.4997H20V14.833Z" fill="white"/>
<path d="M5 19H6.66667V20.6667H5V19Z" fill="white"/>
<path d="M10 19H11.6667V20.6667H10V19Z" fill="white"/>
<path d="M15 19H16.6667V20.6667H15V19Z" fill="white"/>
<path d="M20 19H21.6667V20.6667H20V19Z" fill="white"/>
<path d="M6.66732 7.33366C6.88833 7.33366 7.10029 7.24586 7.25657 7.08958C7.41285 6.9333 7.50065 6.72134 7.50065 6.50033V1.50033C7.50065 1.27931 7.41285 1.06735 7.25657 0.91107C7.10029 0.75479 6.88833 0.666992 6.66732 0.666992C6.4463 0.666992 6.23434 0.75479 6.07806 0.91107C5.92178 1.06735 5.83398 1.27931 5.83398 1.50033V6.50033C5.83398 6.72134 5.92178 6.9333 6.07806 7.08958C6.23434 7.24586 6.4463 7.33366 6.66732 7.33366Z" fill="white"/>
<path d="M19.9993 7.33366C20.2204 7.33366 20.4323 7.24586 20.5886 7.08958C20.7449 6.9333 20.8327 6.72134 20.8327 6.50033V1.50033C20.8327 1.27931 20.7449 1.06735 20.5886 0.91107C20.4323 0.75479 20.2204 0.666992 19.9993 0.666992C19.7783 0.666992 19.5664 0.75479 19.4101 0.91107C19.2538 1.06735 19.166 1.27931 19.166 1.50033V6.50033C19.166 6.72134 19.2538 6.9333 19.4101 7.08958C19.5664 7.24586 19.7783 7.33366 19.9993 7.33366Z" fill="white"/>
<path d="M9.16602 4H17.4993V5.66667H9.16602V4Z" fill="white"/>
</svg>
