<svg width="282" height="60" viewBox="0 0 282 60" fill="none" xmlns="http://www.w3.org/2000/svg">
<path d="M100.72 5.576C102.213 5.576 103.301 5.88 103.984 6.488C104.667 7.08533 105.008 7.92267 105.008 9C105.008 9.48 104.928 9.93867 104.768 10.376C104.619 10.8133 104.368 11.208 104.016 11.56C103.664 11.9013 103.195 12.1733 102.608 12.376C102.032 12.568 101.323 12.664 100.48 12.664H99.248V17H97.52V5.576H100.72ZM100.592 7.032H99.248V11.208H100.288C100.939 11.208 101.483 11.1387 101.92 11C102.357 10.8507 102.683 10.6213 102.896 10.312C103.12 9.992 103.232 9.576 103.232 9.064C103.232 8.38133 103.019 7.87467 102.592 7.544C102.176 7.20267 101.509 7.032 100.592 7.032ZM114.725 12.68C114.725 13.3947 114.629 14.0293 114.437 14.584C114.245 15.1387 113.973 15.608 113.621 15.992C113.269 16.376 112.842 16.6693 112.341 16.872C111.84 17.064 111.274 17.16 110.645 17.16C110.069 17.16 109.536 17.064 109.045 16.872C108.554 16.6693 108.128 16.376 107.765 15.992C107.413 15.608 107.136 15.1387 106.933 14.584C106.73 14.0293 106.629 13.3893 106.629 12.664C106.629 11.7147 106.789 10.9093 107.109 10.248C107.44 9.58667 107.909 9.08533 108.517 8.744C109.136 8.392 109.861 8.216 110.693 8.216C111.482 8.216 112.176 8.392 112.773 8.744C113.381 9.08533 113.856 9.58667 114.197 10.248C114.549 10.9093 114.725 11.72 114.725 12.68ZM108.373 12.68C108.373 13.32 108.453 13.8747 108.613 14.344C108.773 14.8027 109.024 15.1547 109.365 15.4C109.706 15.6453 110.144 15.768 110.677 15.768C111.21 15.768 111.648 15.6453 111.989 15.4C112.33 15.1547 112.581 14.8027 112.741 14.344C112.901 13.8747 112.981 13.32 112.981 12.68C112.981 12.0187 112.896 11.464 112.725 11.016C112.565 10.568 112.314 10.2267 111.973 9.992C111.642 9.74667 111.205 9.624 110.661 9.624C109.861 9.624 109.28 9.89067 108.917 10.424C108.554 10.9573 108.373 11.7093 108.373 12.68ZM122.386 12.68C122.333 12.4667 122.269 12.232 122.194 11.976C122.13 11.72 122.066 11.464 122.002 11.208C121.938 10.9413 121.88 10.696 121.826 10.472C121.773 10.248 121.73 10.072 121.698 9.944H121.634C121.613 10.072 121.576 10.248 121.522 10.472C121.48 10.696 121.426 10.9413 121.362 11.208C121.298 11.464 121.234 11.7253 121.17 11.992C121.106 12.248 121.037 12.4827 120.962 12.696L119.682 16.984H117.794L115.41 8.36H117.138L118.258 12.728C118.344 13.0267 118.418 13.3413 118.482 13.672C118.557 14.0027 118.621 14.3227 118.674 14.632C118.738 14.9307 118.781 15.1813 118.802 15.384H118.866C118.888 15.2453 118.92 15.0747 118.962 14.872C119.005 14.6587 119.048 14.44 119.09 14.216C119.144 13.9813 119.192 13.7573 119.234 13.544C119.288 13.3307 119.341 13.1547 119.394 13.016L120.77 8.36H122.626L123.97 13.016C124.034 13.2293 124.104 13.4853 124.178 13.784C124.253 14.072 124.317 14.36 124.37 14.648C124.434 14.9253 124.477 15.1653 124.498 15.368H124.562C124.584 15.1867 124.621 14.952 124.674 14.664C124.728 14.3653 124.792 14.0453 124.866 13.704C124.952 13.3627 125.032 13.0373 125.106 12.728L126.258 8.36H127.97L125.554 16.984H123.618L122.386 12.68ZM132.861 8.216C133.618 8.216 134.269 8.376 134.813 8.696C135.357 9.00533 135.773 9.45333 136.061 10.04C136.359 10.6267 136.509 11.32 136.509 12.12V13.048H130.717C130.738 13.9333 130.967 14.6107 131.405 15.08C131.853 15.5493 132.477 15.784 133.277 15.784C133.831 15.784 134.322 15.736 134.749 15.64C135.186 15.5333 135.634 15.3787 136.093 15.176V16.584C135.666 16.776 135.229 16.92 134.781 17.016C134.343 17.112 133.821 17.16 133.213 17.16C132.381 17.16 131.645 16.9947 131.005 16.664C130.365 16.3333 129.863 15.8427 129.501 15.192C129.149 14.5307 128.973 13.72 128.973 12.76C128.973 11.7893 129.133 10.968 129.453 10.296C129.783 9.624 130.237 9.112 130.813 8.76C131.399 8.39733 132.082 8.216 132.861 8.216ZM132.861 9.528C132.253 9.528 131.762 9.72533 131.389 10.12C131.026 10.5147 130.813 11.0747 130.749 11.8H134.813C134.813 11.352 134.743 10.9573 134.605 10.616C134.466 10.2747 134.253 10.008 133.965 9.816C133.677 9.624 133.309 9.528 132.861 9.528ZM142.881 8.216C143.03 8.216 143.196 8.22667 143.377 8.248C143.558 8.25867 143.708 8.27467 143.825 8.296L143.649 9.88C143.532 9.848 143.393 9.82133 143.233 9.8C143.073 9.77867 142.924 9.768 142.785 9.768C142.465 9.768 142.156 9.832 141.857 9.96C141.569 10.0773 141.308 10.2533 141.073 10.488C140.838 10.712 140.652 10.9893 140.513 11.32C140.385 11.6507 140.321 12.0293 140.321 12.456V17H138.625V8.376H139.969L140.193 9.912H140.257C140.438 9.60267 140.657 9.32 140.913 9.064C141.169 8.808 141.462 8.60533 141.793 8.456C142.124 8.296 142.486 8.216 142.881 8.216ZM148.501 8.216C149.259 8.216 149.909 8.376 150.453 8.696C150.997 9.00533 151.413 9.45333 151.701 10.04C152 10.6267 152.149 11.32 152.149 12.12V13.048H146.357C146.379 13.9333 146.608 14.6107 147.045 15.08C147.493 15.5493 148.117 15.784 148.917 15.784C149.472 15.784 149.963 15.736 150.389 15.64C150.827 15.5333 151.275 15.3787 151.733 15.176V16.584C151.307 16.776 150.869 16.92 150.421 17.016C149.984 17.112 149.461 17.16 148.853 17.16C148.021 17.16 147.285 16.9947 146.645 16.664C146.005 16.3333 145.504 15.8427 145.141 15.192C144.789 14.5307 144.613 13.72 144.613 12.76C144.613 11.7893 144.773 10.968 145.093 10.296C145.424 9.624 145.877 9.112 146.453 8.76C147.04 8.39733 147.723 8.216 148.501 8.216ZM148.501 9.528C147.893 9.528 147.403 9.72533 147.029 10.12C146.667 10.5147 146.453 11.0747 146.389 11.8H150.453C150.453 11.352 150.384 10.9573 150.245 10.616C150.107 10.2747 149.893 10.008 149.605 9.816C149.317 9.624 148.949 9.528 148.501 9.528ZM157.226 17.16C156.191 17.16 155.354 16.7867 154.714 16.04C154.084 15.2933 153.77 14.184 153.77 12.712C153.77 11.2293 154.09 10.1093 154.73 9.352C155.37 8.59467 156.212 8.216 157.258 8.216C157.695 8.216 158.074 8.27467 158.394 8.392C158.724 8.49867 159.007 8.648 159.242 8.84C159.487 9.032 159.695 9.24533 159.866 9.48H159.962C159.94 9.33067 159.914 9.11733 159.882 8.84C159.85 8.552 159.834 8.296 159.834 8.072V4.84H161.53V17H160.202L159.914 15.848H159.834C159.674 16.0933 159.471 16.3173 159.226 16.52C158.991 16.712 158.708 16.8667 158.378 16.984C158.047 17.1013 157.663 17.16 157.226 17.16ZM157.626 15.768C158.458 15.768 159.044 15.5387 159.386 15.08C159.727 14.6107 159.898 13.912 159.898 12.984V12.728C159.898 11.7147 159.732 10.9413 159.402 10.408C159.082 9.87467 158.484 9.608 157.61 9.608C156.916 9.608 156.394 9.89067 156.042 10.456C155.69 11.0107 155.514 11.7733 155.514 12.744C155.514 13.7147 155.69 14.4613 156.042 14.984C156.394 15.5067 156.922 15.768 157.626 15.768ZM170.04 7.768C170.04 8.12 170.029 8.456 170.008 8.776C169.997 9.08533 169.981 9.33067 169.96 9.512H170.04C170.285 9.14933 170.616 8.84533 171.032 8.6C171.448 8.35467 171.986 8.232 172.648 8.232C173.682 8.232 174.514 8.60533 175.144 9.352C175.784 10.0987 176.104 11.208 176.104 12.68C176.104 13.672 175.96 14.4987 175.672 15.16C175.384 15.8213 174.978 16.3227 174.456 16.664C173.933 16.9947 173.325 17.16 172.632 17.16C171.96 17.16 171.421 17.0427 171.016 16.808C170.61 16.5627 170.285 16.2747 170.04 15.944H169.912L169.592 17H168.344V4.84H170.04V7.768ZM172.248 9.608C171.693 9.608 171.256 9.71467 170.936 9.928C170.616 10.1413 170.386 10.4667 170.248 10.904C170.109 11.3413 170.04 11.896 170.04 12.568V12.696C170.04 13.688 170.2 14.4507 170.52 14.984C170.84 15.5067 171.426 15.768 172.28 15.768C172.962 15.768 173.48 15.5013 173.832 14.968C174.184 14.4347 174.36 13.6667 174.36 12.664C174.36 11.6507 174.184 10.888 173.832 10.376C173.48 9.864 172.952 9.608 172.248 9.608ZM176.641 8.376H178.465L180.257 13.272C180.353 13.5173 180.438 13.7573 180.513 13.992C180.588 14.2267 180.652 14.4613 180.705 14.696C180.769 14.92 180.817 15.144 180.849 15.368H180.913C180.966 15.0907 181.052 14.7653 181.169 14.392C181.286 14.008 181.409 13.6293 181.537 13.256L183.233 8.376H185.057L181.361 18.168C181.158 18.7227 180.908 19.1973 180.609 19.592C180.31 19.9973 179.953 20.3067 179.537 20.52C179.132 20.7333 178.652 20.84 178.097 20.84C177.83 20.84 177.601 20.824 177.409 20.792C177.217 20.7707 177.052 20.744 176.913 20.712V19.368C177.03 19.3893 177.169 19.4107 177.329 19.432C177.5 19.4533 177.676 19.464 177.857 19.464C178.188 19.464 178.47 19.4 178.705 19.272C178.95 19.144 179.153 18.9627 179.313 18.728C179.484 18.4933 179.628 18.2267 179.745 17.928L180.097 17L176.641 8.376Z" fill="#F0F7FF"/>
<path d="M37.7432 38.9106V36.4668H27.3877V55.3677H37.7432V52.9108H29.8741V47.1337H37.7432V44.6899H29.8741V38.9106H37.7432Z" fill="#3CB4FF"/>
<path d="M50.1661 36.4668V43.5279C49.1562 42.7474 47.9461 42.2643 46.6737 42.1337C45.4012 42.0032 44.1174 42.2303 42.9684 42.7893C41.8193 43.3483 40.8511 44.2167 40.1739 45.2957C39.4967 46.3748 39.1377 47.6211 39.1377 48.893C39.1377 50.1649 39.4967 51.4113 40.1739 52.4903C40.8511 53.5694 41.8193 54.4378 42.9684 54.9968C44.1174 55.5558 45.4012 55.7829 46.6737 55.6523C47.9461 55.5217 49.1562 55.0387 50.1661 54.2581V55.3699H52.6635V36.4668H50.1661ZM45.9739 53.1572C45.0883 53.1567 44.2245 52.8833 43.5015 52.3747C42.7786 51.866 42.2319 51.1471 41.9368 50.3168C41.6417 49.4865 41.6126 48.5857 41.8536 47.7383C42.0946 46.8909 42.5938 46.1386 43.2825 45.5849C43.9712 45.0313 44.8156 44.7034 45.6994 44.6465C46.5832 44.5896 47.463 44.8064 48.2178 45.2671C48.9726 45.7279 49.5652 46.4099 49.9141 47.2192C50.263 48.0286 50.3511 48.9256 50.1661 49.7868C49.9605 50.7406 49.4322 51.5955 48.6693 52.2089C47.9064 52.8222 46.955 53.1569 45.9739 53.1572Z" fill="#3CB4FF"/>
<path d="M110.539 42.8216C109.723 42.4459 108.81 42.3355 107.927 42.5062C107.045 42.6768 106.24 43.1198 105.625 43.7721V36.4668H103.128V55.3699H105.625V47.1337C105.624 46.504 105.867 45.8981 106.303 45.4418C106.74 44.9855 107.336 44.714 107.969 44.6837C108.602 44.6533 109.222 44.8666 109.7 45.279C110.179 45.6914 110.479 46.2714 110.539 46.8983V55.3699H113.038V46.6912C113.038 45.876 112.802 45.0781 112.359 44.3922C111.916 43.7063 111.284 43.1612 110.539 42.8216Z" fill="#3CB4FF"/>
<path d="M89.6324 42.7757V43.519C88.6217 42.7413 87.412 42.261 86.1405 42.1325C84.8691 42.004 83.5869 42.2326 82.4395 42.7922C81.2921 43.3519 80.3256 44.2202 79.6496 45.2986C78.9736 46.3769 78.6152 47.6222 78.6152 48.8928C78.6152 50.1635 78.9736 51.4088 79.6496 52.4871C80.3256 53.5655 81.2921 54.4338 82.4395 54.9935C83.5869 55.5531 84.8691 55.7817 86.1405 55.6532C87.412 55.5247 88.6217 55.0444 89.6324 54.2666V55.2956H92.1297V42.7757H89.6324ZM85.4511 53.157C84.6054 53.1553 83.7791 52.9045 83.0766 52.4362C82.3742 51.9679 81.827 51.3032 81.5041 50.526C81.1813 49.7488 81.0972 48.8939 81.2627 48.0692C81.4281 47.2446 81.8355 46.4871 82.4335 45.8925C83.0316 45.2979 83.7934 44.8928 84.6228 44.7283C85.4522 44.5639 86.312 44.6474 87.0937 44.9684C87.8754 45.2894 88.5439 45.8335 89.0149 46.5319C89.4858 47.2304 89.7381 48.0519 89.7398 48.8928C89.7388 49.209 89.7027 49.5241 89.6324 49.8324C89.4176 50.7758 88.8869 51.6186 88.1272 52.2226C87.3675 52.8267 86.4239 53.1561 85.4511 53.157Z" fill="#3CB4FF"/>
<path d="M74.7587 36.4668V45.0474H69.2181V36.4668H66.7207V55.3656H69.2181V47.5305H74.7587V55.3656H77.2561V36.4668H74.7587Z" fill="#3CB4FF"/>
<path d="M62.3982 43.2119V50.2818C62.3383 50.9316 62.0364 51.5357 61.5517 51.9755C61.0669 52.4154 60.4343 52.6593 59.7781 52.6593C59.1218 52.6593 58.4892 52.4154 58.0044 51.9755C57.5197 51.5357 57.2178 50.9316 57.1579 50.2818V43.2119H54.6584V50.6088C54.6528 51.2639 54.7803 51.9133 55.0331 52.5183C55.2859 53.1232 55.6588 53.6712 56.1296 54.1295C57.0812 55.067 58.3383 55.5357 59.9008 55.5357C61.3903 55.5357 62.6116 55.067 63.5646 54.1295C64.0303 53.6684 64.3988 53.1194 64.6484 52.5149C64.898 51.9103 65.0238 51.2623 65.0183 50.6088V43.2119H62.3982Z" fill="#3CB4FF"/>
<path d="M96.6356 52.7581C96.7736 52.8972 96.9382 53.0074 97.1197 53.0823C97.3012 53.1572 97.4959 53.1952 97.6924 53.1942C97.8883 53.1956 98.0825 53.1578 98.2633 53.0828C98.4442 53.0079 98.6079 52.8975 98.7448 52.7581C98.8872 52.6228 98.9997 52.4595 99.0752 52.2786C99.1507 52.0977 99.1875 51.9032 99.1834 51.7074C99.1858 51.515 99.1481 51.3243 99.0726 51.1472C98.9971 50.9701 98.8855 50.8104 98.7448 50.6784C98.3453 50.3371 97.9152 50.0328 97.46 49.7693C96.77 49.4295 96.1285 48.9999 95.5524 48.4918C95.237 48.1927 94.987 47.8322 94.818 47.4327C94.6489 47.0332 94.5646 46.6034 94.5702 46.1701C94.5637 45.7328 94.6477 45.299 94.8171 44.8954C94.9864 44.4919 95.2375 44.1273 95.5546 43.8243C95.8635 43.5093 96.2338 43.2604 96.6429 43.0928C97.052 42.9253 97.4912 42.8426 97.9336 42.8499C98.3628 42.8379 98.7899 42.9135 99.1885 43.0721C99.5871 43.2307 99.9488 43.4689 100.251 43.772C100.668 44.1642 100.96 44.6688 101.093 45.2239L98.6813 45.9106C98.6519 45.771 98.5953 45.6384 98.5146 45.5204C98.4382 45.4473 98.3478 45.3904 98.2487 45.3529C98.1496 45.3154 98.0439 45.2983 97.938 45.3024C97.8228 45.3006 97.7086 45.3224 97.6022 45.3662C97.4959 45.4101 97.3997 45.4752 97.3197 45.5575C97.2353 45.6358 97.1684 45.7307 97.1231 45.8362C97.0778 45.9416 97.0551 46.0554 97.0566 46.1701C97.0546 46.2822 97.076 46.3936 97.1193 46.4971C97.1627 46.6007 97.2272 46.6942 97.3087 46.7718C97.6343 47.0377 97.9795 47.2789 98.3414 47.4934C99.1243 47.8839 99.8514 48.3766 100.503 48.9583C100.872 49.3201 101.164 49.751 101.364 50.2261C101.564 50.7012 101.667 51.211 101.667 51.7259C101.667 52.2408 101.564 52.7506 101.364 53.2257C101.164 53.7008 100.872 54.1317 100.503 54.4935C100.001 55.0016 99.3682 55.364 98.674 55.5417C97.9798 55.7195 97.25 55.7059 96.563 55.5024C95.876 55.2989 95.2577 54.9132 94.7745 54.3867C94.2913 53.8602 93.9614 53.2128 93.8203 52.514L96.2935 51.9951C96.3321 52.2767 96.4508 52.5414 96.6356 52.7581Z" fill="#3CB4FF"/>
<path d="M159.085 36.4668V55.3699H161.593V54.2581C162.603 55.0387 163.813 55.5217 165.086 55.6523C166.358 55.7829 167.642 55.5558 168.791 54.9968C169.94 54.4378 170.908 53.5694 171.585 52.4903C172.263 51.4113 172.622 50.1649 172.622 48.893C172.622 47.6211 172.263 46.3748 171.585 45.2957C170.908 44.2167 169.94 43.3483 168.791 42.7893C167.642 42.2303 166.358 42.0032 165.086 42.1337C163.813 42.2643 162.603 42.7474 161.593 43.5279V36.4668H159.085ZM161.593 49.7868C161.408 48.9251 161.496 48.0275 161.845 47.2174C162.193 46.4074 162.786 45.7248 163.541 45.2636C164.297 44.8024 165.177 44.5852 166.062 44.6421C166.946 44.699 167.791 45.027 168.48 45.5811C169.169 46.1351 169.669 46.888 169.91 47.736C170.151 48.5839 170.122 49.4854 169.826 50.3161C169.531 51.1469 168.983 51.8662 168.26 52.375C167.536 52.8838 166.672 53.1571 165.785 53.1572C164.806 53.1501 163.858 52.8129 163.097 52.2007C162.335 51.5885 161.805 50.7375 161.593 49.7868Z" fill="#3CB4FF"/>
<path d="M157.752 47.9947C157.519 46.2456 156.611 44.655 155.221 43.559C153.83 42.463 152.065 41.9473 150.3 42.1209C148.534 42.2945 146.905 43.1438 145.757 44.4894C144.609 45.835 144.032 47.5715 144.148 49.3321C144.264 51.0927 145.064 52.7395 146.379 53.9246C147.693 55.1098 149.42 55.7405 151.193 55.6834C152.967 55.6264 154.649 54.8862 155.884 53.6191C157.119 52.352 157.81 50.6572 157.811 48.8929C157.811 48.5925 157.792 48.2925 157.752 47.9947ZM150.977 53.157C150.129 53.1575 149.299 52.9077 148.594 52.4394C147.888 51.9712 147.338 51.3053 147.013 50.5262C146.688 49.7471 146.603 48.8896 146.768 48.0623C146.933 47.235 147.342 46.475 147.941 45.8784C148.541 45.2819 149.305 44.8755 150.137 44.7108C150.969 44.5461 151.832 44.6304 152.615 44.9531C153.399 45.2758 154.069 45.8223 154.54 46.5236C155.012 47.2249 155.263 48.0494 155.263 48.8929C155.263 50.0234 154.812 51.1077 154.008 51.9073C153.204 52.7069 152.114 53.1565 150.977 53.157Z" fill="#3CB4FF"/>
<path d="M185.007 42.7761V43.5195C183.997 42.7418 182.787 42.2614 181.516 42.133C180.244 42.0045 178.962 42.2331 177.814 42.7927C176.667 43.3524 175.701 44.2207 175.025 45.299C174.349 46.3774 173.99 47.6226 173.99 48.8933C173.99 50.164 174.349 51.4092 175.025 52.4876C175.701 53.566 176.667 54.4343 177.814 54.994C178.962 55.5536 180.244 55.7822 181.516 55.6537C182.787 55.5252 183.997 55.0448 185.007 54.2671V55.2961H187.507V42.7761H185.007ZM180.828 53.1575C180.02 53.1583 179.229 52.9322 178.544 52.5052C177.86 52.0783 177.311 51.4678 176.96 50.7442C176.61 50.0205 176.472 49.2131 176.562 48.415C176.653 47.6168 176.969 46.8603 177.473 46.2326C177.977 45.6049 178.649 45.1315 179.412 44.867C180.175 44.6025 180.997 44.5576 181.784 44.7374C182.572 44.9173 183.292 45.3146 183.862 45.8836C184.432 46.4526 184.829 47.1702 185.007 47.9537C185.154 48.5717 185.154 49.215 185.007 49.8329C184.793 50.7763 184.263 51.6192 183.504 52.2234C182.744 52.8275 181.801 53.1569 180.828 53.1575Z" fill="#3CB4FF"/>
<path d="M142.86 36.4541H140.362V55.3681H142.86V36.4541Z" fill="#3CB4FF"/>
<path d="M135.749 51.2564C134.648 52.1616 133.302 52.7223 131.88 52.8678C130.459 53.0133 129.026 52.7371 127.762 52.0741C126.499 51.411 125.461 50.3908 124.779 49.1421C124.098 47.8933 123.804 46.4719 123.934 45.0571C124.064 43.6423 124.612 42.2974 125.51 41.1921C126.407 40.0867 127.614 39.2703 128.977 38.8459C130.341 38.4215 131.801 38.408 133.172 38.8071C134.543 39.2062 135.765 40.0001 136.683 41.0887L138.38 39.5627C137.123 38.0973 135.447 37.0482 133.574 36.5555C131.702 36.0629 129.722 36.1501 127.901 36.8056C126.08 37.461 124.503 38.6535 123.382 40.2237C122.26 41.7939 121.647 43.667 121.625 45.5927C121.602 47.5184 122.171 49.4051 123.256 51.0007C124.341 52.5962 125.89 53.8246 127.695 54.5218C129.501 55.219 131.477 55.3517 133.361 54.9022C135.244 54.4527 136.945 53.4424 138.235 52.0063V46.0592H135.749V51.2564Z" fill="#3CB4FF"/>
<path d="M192.011 36.4541H189.514V55.3681H192.011V36.4541Z" fill="#3CB4FF"/>
<path d="M222.671 42.7757V43.519C221.661 42.7413 220.451 42.261 219.18 42.1325C217.908 42.004 216.626 42.2326 215.479 42.7922C214.331 43.3519 213.365 44.2202 212.689 45.2986C212.013 46.3769 211.654 47.6222 211.654 48.8928C211.654 50.1635 212.013 51.4088 212.689 52.4871C213.365 53.5655 214.331 54.4338 215.479 54.9935C216.626 55.5531 217.908 55.7817 219.18 55.6532C220.451 55.5247 221.661 55.0444 222.671 54.2666V55.2956H225.178V42.7757H222.671ZM218.492 53.157C217.647 53.1557 216.82 52.9052 216.117 52.4373C215.415 51.9693 214.867 51.3047 214.544 50.5275C214.221 49.7503 214.136 48.8954 214.301 48.0706C214.467 47.2458 214.874 46.4881 215.472 45.8933C216.07 45.2985 216.832 44.8931 217.661 44.7285C218.491 44.5638 219.35 44.6472 220.132 44.9682C220.914 45.2891 221.583 45.8332 222.054 46.5317C222.525 47.2302 222.777 48.0518 222.779 48.8928C222.778 49.209 222.742 49.5241 222.671 49.8324C222.458 50.7758 221.927 51.6188 221.168 52.2229C220.408 52.827 219.465 53.1564 218.492 53.157Z" fill="#3CB4FF"/>
<path d="M210.813 38.9237C209.928 37.8029 208.694 37.0062 207.304 36.6586C206.789 36.5313 206.259 36.4669 205.728 36.4668H200.904V55.2958H203.391V49.3203H205.73C206.943 49.3202 208.131 48.9809 209.159 48.3413C210.187 47.7016 211.013 46.7874 211.543 45.703C212.073 44.6187 212.286 43.4079 212.156 42.2091C212.027 41.0103 211.562 39.8718 210.813 38.9237ZM203.402 46.8634V38.9237H205.73C206.789 38.9237 207.805 39.342 208.553 40.0864C209.302 40.8309 209.723 41.8407 209.723 42.8936C209.723 43.9464 209.302 44.9562 208.553 45.7007C207.805 46.4452 206.789 46.8634 205.73 46.8634H203.402Z" fill="#3CB4FF"/>
<path d="M238.369 43.212V38.6514H235.882V43.212H233.659V45.658H235.882V55.3679H238.369V45.658H240.59V43.212H238.369Z" fill="#3CB4FF"/>
<path d="M229.677 44.6442V43.2119H227.18V55.2959H229.677V49.0631C229.888 48.1396 230.403 47.3124 231.14 46.7123C231.877 46.1122 232.794 45.7734 233.746 45.7495V43.2141C232.27 43.2385 230.841 43.7406 229.677 44.6442Z" fill="#3CB4FF"/>
<path d="M270.007 44.6442V43.2119H267.508V55.2959H270.007V49.0631C270.218 48.1403 270.733 47.3136 271.469 46.7136C272.205 46.1136 273.121 45.7743 274.072 45.7495V43.2141C272.597 43.2395 271.17 43.7415 270.007 44.6442Z" fill="#3CB4FF"/>
<path d="M276.966 52.7587C277.104 52.8978 277.269 53.008 277.451 53.0829C277.632 53.1578 277.827 53.1958 278.023 53.1947C278.219 53.1962 278.413 53.1583 278.594 53.0834C278.775 53.0085 278.939 52.8981 279.076 52.7587C279.218 52.6234 279.331 52.4601 279.406 52.2792C279.482 52.0983 279.518 51.9037 279.514 51.7079C279.516 51.5156 279.479 51.325 279.403 51.1479C279.328 50.9708 279.216 50.8112 279.076 50.679C278.675 50.3384 278.244 50.0341 277.789 49.7699C277.099 49.4301 276.457 49.0005 275.881 48.4924C275.564 48.1932 275.313 47.8321 275.143 47.4318C274.974 47.0315 274.889 46.6007 274.894 46.1663C274.888 45.7291 274.972 45.2953 275.142 44.8918C275.311 44.4884 275.562 44.1237 275.879 43.8206C276.188 43.5058 276.558 43.257 276.967 43.0894C277.376 42.9219 277.815 42.8391 278.258 42.8461C278.688 42.8335 279.117 42.9092 279.517 43.0686C279.917 43.228 280.279 43.4677 280.582 43.7726C280.999 44.1648 281.291 44.6694 281.424 45.2245L279.012 45.9112C278.981 45.7716 278.924 45.6392 278.843 45.521C278.767 45.4479 278.676 45.3909 278.577 45.3535C278.478 45.316 278.373 45.2988 278.267 45.303C278.151 45.3012 278.037 45.3229 277.931 45.3668C277.825 45.4107 277.728 45.4758 277.648 45.558C277.565 45.6362 277.5 45.7306 277.455 45.8353C277.41 45.9399 277.388 46.0526 277.39 46.1663C277.388 46.2784 277.409 46.3898 277.452 46.4933C277.496 46.5969 277.56 46.6904 277.642 46.768C277.967 47.0339 278.312 47.2751 278.674 47.4896C279.457 47.8802 280.184 48.3728 280.836 48.9545C281.205 49.3163 281.497 49.7472 281.697 50.2223C281.897 50.6974 282 51.2072 282 51.7221C282 52.237 281.897 52.7468 281.697 53.2219C281.497 53.697 281.205 54.1279 280.836 54.4897C280.334 54.9978 279.701 55.3602 279.007 55.5379C278.313 55.7157 277.583 55.7021 276.896 55.4986C276.209 55.2951 275.591 54.9094 275.107 54.3829C274.624 53.8564 274.294 53.209 274.153 52.5102L276.627 51.9913C276.664 52.2742 276.782 52.5405 276.966 52.7587Z" fill="#3CB4FF"/>
<path d="M249.296 42.8218C248.48 42.445 247.565 42.3341 246.682 42.5048C245.799 42.6755 244.993 43.1191 244.378 43.7723V43.212H241.881V55.3701H244.378V47.1339C244.359 46.4929 244.594 45.8701 245.032 45.3995C245.47 44.9288 246.077 44.6479 246.721 44.6171C247.365 44.5862 247.996 44.8079 248.477 45.2346C248.959 45.6612 249.253 46.2586 249.296 46.8985V55.3701H251.796V46.6914C251.795 45.8762 251.559 45.0783 251.116 44.3924C250.673 43.7065 250.041 43.1614 249.296 42.8218Z" fill="#3CB4FF"/>
<path d="M257.801 52.6163C258.216 52.9782 258.973 53.1592 260.071 53.1592C260.634 53.1685 261.194 53.0647 261.716 52.8538C262.238 52.6429 262.712 52.3293 263.11 51.9318C263.212 51.8199 263.424 51.5757 263.745 51.1993L266.232 52.0713C265.83 52.6469 265.391 53.1953 264.916 53.7129C263.629 54.9772 261.892 55.6862 260.083 55.6862C258.273 55.6862 256.537 54.9772 255.249 53.7129C254.603 53.0996 254.092 52.3604 253.747 51.5415C253.401 50.7226 253.23 49.8417 253.243 48.9539C253.23 48.0657 253.401 47.1843 253.746 46.365C254.091 45.5457 254.603 44.8062 255.249 44.1926C256.441 43.0262 258.019 42.3294 259.688 42.2316C261.358 42.1338 263.007 42.6416 264.329 43.6607C264.528 43.8264 264.725 44.003 264.916 44.1926C264.997 44.2711 265.225 44.5189 265.602 44.936L264.353 46.1765L257.801 52.6163ZM261.967 45.0559C261.687 44.8423 261.058 44.7355 260.082 44.7355C259.52 44.7269 258.962 44.8321 258.443 45.0446C257.924 45.2571 257.453 45.5725 257.06 45.9716C256.656 46.3561 256.336 46.8195 256.12 47.3326C255.904 47.8458 255.797 48.3977 255.806 48.9539C255.806 49.9073 255.914 50.5257 256.131 50.8091L261.967 45.0559Z" fill="#3CB4FF"/>
<path d="M11.1276 57.1289L7.66113 57.1333L9.39327 59.963L11.1276 57.1289Z" fill="#010101"/>
<path d="M11.1822 49.8109L10.6844 48.9389L11.9408 46.8853L8.30769 40.5937L7.08642 42.5906C7.07521 42.6082 7.06276 42.625 7.04915 42.6408L6.55582 41.7818L7.81216 39.7282L4.24045 33.526C2.93808 34.3747 1.86856 35.5322 1.12829 36.8943C0.388023 38.2563 0.000276635 39.7802 0 41.3284C0 42.6822 0.532797 44.3368 1.17084 45.8498C1.78982 47.2894 2.50624 48.6857 3.31518 50.0289L7.11492 56.242H11.6733L14.5763 51.4939L12.4297 47.7573L11.1822 49.8109ZM17.8059 45.4944C18.4957 44.1164 18.8322 42.5902 18.7857 41.0517C18.7392 39.5131 18.3109 38.0098 17.5391 36.6754C16.7674 35.3411 15.6759 34.2171 14.3618 33.4033C13.0477 32.5895 11.5518 32.1112 10.0069 32.0109L11.6492 34.845L11.1295 35.7061L8.98958 32C7.5944 32.0574 6.22996 32.4254 4.99689 33.0769L14.3197 49.2877L15.0981 50.6437L15.473 50.0289C16.1755 48.8652 16.808 47.6612 17.3674 46.4231L16.7097 45.3636L15.1748 42.7302L15.6945 41.8799L17.8059 45.4944Z" fill="url(#paint0_linear_1303_22931)"/>
<path d="M11.1825 49.8112L10.6847 48.9392L11.9411 46.8856L8.30798 40.594L7.08672 42.5909C7.07551 42.6085 7.06305 42.6253 7.04944 42.6411L6.55611 41.7821L7.81246 39.7285L4.76258 34.4289C3.62296 35.1887 2.68861 36.2153 2.04171 37.4185C1.39482 38.6216 1.0552 39.9644 1.05273 41.3287C1.05273 42.3468 1.4189 43.7267 2.14902 45.4446C2.74486 46.836 3.43492 48.1856 4.21443 49.4842L8.34745 56.2423H10.4414L13.9802 50.4565L12.43 47.7576L11.1825 49.8112ZM17.1682 44.3742C17.6266 43.2146 17.8165 41.9674 17.7238 40.7249C17.6312 39.4824 17.2584 38.2766 16.6331 37.1969C16.0078 36.1172 15.146 35.1913 14.1117 34.488C13.0775 33.7846 11.8972 33.3218 10.6584 33.1339L11.6495 34.8496L11.1298 35.7064L9.59503 33.0489H9.3977C8.04787 33.0436 6.71717 33.3662 5.52121 33.9885L9.38892 40.7205L14.502 49.6041L14.5766 49.482C15.3573 48.185 16.0488 46.8368 16.6464 45.4468L16.6639 45.4075L16.7034 45.3378L15.1949 42.7217L15.7145 41.8715L17.1682 44.3742Z" fill="url(#paint1_linear_1303_22931)"/>
<defs>
<linearGradient id="paint0_linear_1303_22931" x1="4.65923" y1="33.5042" x2="12.1764" y2="46.4912" gradientUnits="userSpaceOnUse">
<stop stop-color="#ABDFFF"/>
<stop offset="0.8" stop-color="#5CAEE1"/>
</linearGradient>
<linearGradient id="paint1_linear_1303_22931" x1="14.0854" y1="49.5867" x2="5.15516" y2="34.2011" gradientUnits="userSpaceOnUse">
<stop stop-color="#5BC0FF"/>
<stop offset="1" stop-color="#3CB4FF"/>
</linearGradient>
</defs>
</svg>
